<svg class="cross" xmlns="http://www.w3.org/2000/svg" viewBox="0 0 34.44 37.57"><g class="cross-paths"><path class="cross-line cross-line-one" d="M1.08 36.53q8-8.31 16.58-16.75 7.94-7.84 15.75-15.25"/><path class="cross-line cross-line-two" d="M6.41.61a66.33 66.33 0 0 0 11 17.08 66.18 66.18 0 0 0 15.5 12.84"/></g></svg><svg class="nought" xmlns="http://www.w3.org/2000/svg" viewBox="0 0 32.02 40.6"><path class="nought-line" d="M14.74 6.51a5.17 5.17 0 0 0-2.2-.08c-2 .37-3.21 2-4.88 4.27a36.24 36.24 0 0 0-3.43 6.06 21.94 21.94 0 0 0-1.66 4 28.12 28.12 0 0 0-.75 4.65 33.3 33.3 0 0 0-.32 4.1 11.87 11.87 0 0 0 .4 4.23 7.78 7.78 0 0 0 2.22 3.41A8.2 8.2 0 0 0 8.73 39a12.54 12.54 0 0 0 7.15-1.42A19.35 19.35 0 0 0 19.82 35a28 28 0 0 0 5.37-5.1A25 25 0 0 0 29 23a24.91 24.91 0 0 0 1.25-12.42c-.37-2.18-1-6.1-3.91-8a7 7 0 0 0-3.07-1.06 5.85 5.85 0 0 0-3 .48A6.76 6.76 0 0 0 18 3.84a17 17 0 0 0-1.43 2c-.29.44-.49.76-.85 1.35-.72 1.26-1.15 1.88-1.38 2.31a12 12 0 0 0-1.07 3.09"/></svg><svg class="cross" xmlns="http://www.w3.org/2000/svg" viewBox="0 0 34.44 37.57"><g class="cross-paths"><path class="cross-line cross-line-one" d="M1.08 36.53q8-8.31 16.58-16.75 7.94-7.84 15.75-15.25"/><path class="cross-line cross-line-two" d="M6.41.61a66.33 66.33 0 0 0 11 17.08 66.18 66.18 0 0 0 15.5 12.84"/></g></svg>