<svg xmlns="http://www.w3.org/2000/svg" width="1001" height="1154"><path d="M369.203 174.602c5.594 1.992 5.594 1.992 6.797 4.398.258 4.555-.001 7.878-2 12l3.813-.188c3.89.035 3.89.035 6.125 1.188 1.702 3.205 2.191 6.42 2.062 10-1.313 3.188-1.313 3.188-3 6-1.545 2.401-1.545 2.401-2 5 1.75 3.167 1.75 3.167 4 6 1.491 4.474 1.743 8.32-.188 12.688-2.125 2.712-3.829 4.55-6.812 6.312-5.324 0-8.155-1.388-12-5l-1.188 2.313c-2.07 3.068-3.39 4.287-6.812 5.687-5.324-.095-8.202-1.307-12-5a203.92 203.92 0 0 1-3-4c-2.186 6.961-4.328 13.896-6 21l2.422-.324c10.948-1.195 20.473-.114 29.547 6.527C374.6 264.185 379.529 270.835 382 278v4c-5.058 2.53-11.749 1.723-16.969.047-9.158-4.284-17.88-10.895-25.031-18.047 1.206 7.738 3.051 15.024 5.563 22.438l1.065 3.157C350.12 299.711 354.34 309.375 359 319l1.31 2.727C366.313 334.172 372.748 346.24 380 358l1.377 2.251c10.433 17 21.892 33.248 33.83 49.22C426 423.956 426 423.956 426 427c4.376-3.117 8.46-6.379 12.375-10.063C451.568 404.921 468.305 391.914 486 388l-.875-3.043c-2.977-10.773-6.011-22.053-.39-32.469 2.367-2.783 4.844-3.429 8.39-3.925 5.885.664 11.63 2.959 15.672 7.421C510 358 510 358 510 361l1.469-1.059C516.409 356.588 519.98 355 526 355c2.927 1.209 4.438 2.098 6.113 4.785 2.219 5.54 1.501 12.254-.488 17.777C530 381 530 381 528 383l1.75.848c5.961 3.218 5.961 3.218 7.313 7.59-1.411 4.729-3.688 5.92-7.801 8.398-4.635 2.385-8.159 2.329-13.262 2.164l-1-1-3 7c-5.023.295-7.895-.015-12-3l-2 2c-4.07.662-6.423.008-9.75-2.25-2.538-1.995-4.352-3.557-5.25-6.75a177.36 177.36 0 0 1 0-5c-15.268 6.872-28.561 16.428-41.102 27.465a158.667 158.667 0 0 1-5.734 4.789l-2.539 2.058-2.21 1.739c-1.71 1.933-1.71 1.933-1.306 4.8.921 3.255 2.094 6.143 3.516 9.212 8.671 19.537 14.243 40.491 17.016 61.671.246 2.292.246 2.292 1.359 4.266l2.64-2.195C467.407 496.373 479.09 489.45 496 490c.567 10.054-.503 17.255-5.75 25.875-6.708 6.335-13.073 6.585-21.86 6.656-5.723-.385-11.047-2.569-16.39-4.531l.016 3.07c.018 3.796.03 7.593.039 11.39.005 1.635.012 3.271.02 4.907.087 16.735.087 16.735-1.075 24.633l2.212-.978c3.362-1.478 6.73-2.938 10.1-4.397l3.479-1.54c12.8-5.511 24.157-6.373 37.897-6.21 1.491.01 2.983.02 4.474.027 3.613.022 7.225.057 10.838.098-6.765 13.964-24.093 26.212-38.25 31.875-7.307 2.168-16.291 2.709-23.313-.563-3.334-1.87-5.79-4.584-8.437-7.312l-.547 2.285c-9.69 40.208-23.726 83.915-53.941 113.805-4.284 8.246-1.04 20.166.238 28.972l.54 3.82c1.78 16.477 1.78 16.477 6.71 32.118l1.54-3.148c13.328-27.097 13.328-27.097 23.647-33.977 3.09-.961 4.76-.863 7.813.125 6.237 14.034.336 36.645-4.816 50.438-3.826 8.282-9.711 18.326-18.184 22.562 2.053 8.107 4.638 15.918 7.563 23.75l1.32 3.546c6.244 16.577 13.492 32.72 21.117 48.704l.262-2.79c2.45-22.08 12.096-40.372 28.914-55 13.352-10.452 13.352-10.452 19.113-11.71 1.874-.334 1.874-.334 2.684-2.188L495 792a180.612 180.612 0 0 1 4.438-6l1.325-1.717c4.753-6.07 9.922-11.706 15.237-17.283l2.004-2.129c3.7-3.833 7.576-6.894 11.996-9.871l-.477-3.41c-2.884-23.372 2.254-41.997 16.32-60.88 2.906-3.652 5.997-7.103 9.177-10.519A71.834 71.834 0 0 0 560 674l-3.148-.227c-9.65-.845-17.429-2.234-24.497-9.453-5.243-7.041-5.87-17.146-5.043-25.633C528 635 528 635 529 634c4.862-.711 7.767.482 11.68 3.152 10.578 8.424 18.5 18.924 26.32 29.848 4.64-3.454 9.22-6.965 13.75-10.563 13.521-10.503 28.231-19.294 43.293-27.38 1.827-.987 3.642-1.991 5.453-3.006l3.004-1.676 2.531-1.414C637 622 637 622 639 622c.029-4.437.047-8.875.063-13.313l.025-3.826.01-3.662.016-3.38c.013-2.9.013-2.9-1.114-5.819l-3 2c-2.262.195-2.262.195-4.688.125l-2.449-.055L626 594l-2-4c3.376-3.674 6.391-6.054 11-8h2c-3.966-15.404-9.813-28.755-18.75-41.96C617 538 617 538 617 536l-3.5 1c-7.229 1.769-13.879 1.79-20.5-2-2.517-2.832-2.945-4.632-3.5-8.375.663-4.806 2.456-6.896 5.5-10.625l-1.5-2.438c-1.793-4.257-2.204-7.988-1.5-12.562 3.65-3.65 7.89-3.186 12.875-3.25l3.617-.078c3.813.357 6.22 1.418 9.508 3.328v2l3.5-1.5c4.434-1.646 7.787-2.06 12.5-1.5 2.51 2.355 2.978 3.847 3.469 7.277.083 9.729.083 9.729-1.594 12.75-1.375 1.348-1.375 1.348-3.875 2.973l2.063 1.688C636 527 636 527 636 529.375c-1.835 4.816-3.732 7.893-8.25 10.5L625 541l1.102 1.73C639.418 564.207 643.866 586.09 645 611c7.248-14.341 13.513-28.557 18-44l1.09-3.543c4.585-17.346 2.256-36.883-.09-54.457l-3.352.563C657 510 657 510 654.625 509c-2.4-2.954-2.56-5.236-2.625-9 .938-2.813.938-2.813 3-5 2.678-1.012 5.16-1.488 8-2l-.035-2.117-.028-2.758-.035-2.742C663 483 663 483 664 481c1.437-.081 2.874-.14 4.313-.188l2.425-.105c2.262.293 2.262.293 4.043 1.606 1.811 2.507 1.42 4.686 1.219 7.687l3.313-.25c3.687.25 3.687.25 5.625 1.75 1.612 3.794 1.52 6.375 1.062 10.5-2 2-2 2-4 3l2 2c.36 2.805.493 4.343-1.234 6.645-2.256 1.731-3.516 1.698-6.328 1.605-.786-.015-1.57-.03-2.38-.047C672 515 672 515 670 514l.208 2.164c1.672 18.492 2.34 36.958-3.208 54.836-.23.768-.461 1.535-.7 2.326-4.574 14.923-10.615 30.646-19.3 43.674 17.19-8.993 32.032-19.55 46-33 .63-.577 1.258-1.155 1.906-1.75 9.211-8.69 17.012-19.8 24.094-30.25v-1l-2.195.324c-9.864 1.223-9.864 1.223-14.805-2.324-2.21-3.314-2.225-4.345-2.125-8.188l.055-2.73L700 536c6.97 1.322 13.429 3.502 20.059 5.977 2.737 1.133 2.737 1.133 4.941 1.023 8.683-15.095 16.889-29.696 20-47l-2.262 1.023c-3.547 1.266-6.092.692-9.738-.023-2.31-4.474-2.66-9.055-2-14 2.313-2.313 3.479-2.496 6.625-3.125l2.477-.508L742 479l-1-2c-.04-2.333-.043-4.667 0-7 2.63-1.788 4.145-2 7.375-2 4.38 1.208 7.16 3.143 9.625 7v4l3.313.188C765 480 765 480 767 482c1.36 4.08 1.28 7.877 0 12-3.395 2.263-4.068 2.17-7.938 1.688l-2.59-.301c-2.208-.346-4.31-.83-6.472-1.387l-.118 1.875c-.478 6.06-1.6 11.327-3.757 17l-.92 2.447C739.018 531.102 729.915 545.337 720 559l-1.409 1.982C699.598 587.696 675.25 609.748 645 623h-2l-.227 2.105C636.81 671.245 609.335 710.651 581 746l3.725.044c4.626.059 9.252.136 13.878.218 1.99.033 3.98.062 5.97.084 29.59.35 29.59.35 35.289 5.257L641 753c-3.29 8.172-13.693 12.576-21.188 16.375l-1.977 1.01c-8.157 3.994-17.049 6.238-26.073 4.08-6.503-2.241-10.293-5.219-13.45-11.403-1.569-3.306-2.977-6.654-4.312-10.062l-2 2-1.406 1.39a131.44 131.44 0 0 0-3.25 3.407c-15.118 16.015-35.627 24.338-56.012 31.398l-1.928.676c-1.743.61-3.491 1.21-5.239 1.808-6.326 2.64-10.133 6.02-13.728 11.759l-1.266 1.962A748.652 748.652 0 0 0 485 814l-1.53 2.416C471.823 834.822 461.033 853.668 451 873l2.02-.219c12.27-1.235 24.22-2.013 35.418 4.094 8.137 6.748 13.031 13.578 14.562 24.125.34 6.995.19 14.002 0 21l-4 1-.707-1.8c-8.838-20.08-31.847-31.448-50.293-41.2l.105 2.762c.59 28.198-7.553 55.776-15.23 82.676l-.623 2.187a801.927 801.927 0 0 1-3.637 12.34 563.496 563.496 0 0 0-1.25 4.194 488.756 488.756 0 0 1-1.92 6.314l-1.132 3.73C423 997 423 997 420.847 997.908L419 998c.567-6.76 2.384-12.658 4.563-19.063C433.485 948.81 444.07 914.93 443 883l-1.582 1.574c-8.53 8.081-17.875 12.837-29.711 12.63-11.837-.89-21.083-7.866-29.07-16.278C374 870.764 374 870.764 374 865c14.556 1.62 29.056 3.616 43.563 5.625l7.138.984c5.767.795 11.533 1.592 17.299 2.391l-.82-1.522c-5.55-10.336-10.837-20.648-15.368-31.478l-1.516-3.584c-2.984-7.109-5.859-14.252-8.546-21.479l-.872-2.341C413.798 810.6 413 808.21 413 805l-2.586.656C378.9 812.674 346.532 806.511 319 790l-3-2c.078-2.668.55-4.46 2.273-6.527 9.994-9.22 22.123-9.735 35.04-9.785l2.078-.01c16.304-.026 31.744 2.735 47.609 6.322l-.655-2.645c-3.837-15.602-7.542-31.183-10.158-47.043l-.624-3.759c-.869-5.442-1.636-10.84-2.04-16.338-1.319-16.558-7.443-30.495-14.067-45.536C369 647.955 369 647.955 369 643h-2l-.5 2.063c-3.572 6.995-9.956 10.554-17.105 13.21-6.875 2.086-13.577 1.91-20.707 1.914l-3.631.038c-6.382.01-11.958-.308-18.057-2.225.312-4.37 1.31-7.313 4.332-10.563 13.14-11.324 37.077-13.52 53.668-13.437l-.975-2.86C352.087 596.032 341.148 560.65 335 524l-1.54 1.242c-6.545 5.124-12.066 7.624-20.46 6.758-3.5-1-3.5-1-6-2 .305-4.267 1.248-7.33 4.156-10.55 6.197-4.872 14.339-6.607 21.844-8.45l-.433-3.376c-1.528-12.645-1.81-25.087-1.692-37.812.01-1.936.02-3.873.027-5.81.022-4.667.056-9.335.098-14.002l-2.047 1.059-2.703 1.378-2.672 1.372c-4.39 2.029-8.187 2.397-13.015 2.503l-3.372.114c-3.862-.516-5.434-1.733-8.191-4.426-2.371-4.065-2.69-8.397-2-13 2.333-6.721 6.483-12.677 12.625-16.375C313 421 313 421 316 421l-1.313-1.652c-3.483-4.717-5.592-8.249-5.144-14.207.995-4.661 3.06-7.938 6.707-11.079 3.731-1.441 6.863-1.913 10.75-1.062 6.329 3.072 11.28 7.871 16 13l2.129-1.473c4.786-2.545 9.583-2.173 14.871-1.527 4.419 2.13 7.431 4.814 10 9 .599 2.702.812 5.224 1 8l2.379-.105c6.352-.164 11.084-.145 16.621 3.105 2.52 3.78 2.08 5.454 1.477 9.781-.847 3.943-2.477 6.344-5.477 8.969-3.448 2.155-6.22 2.364-10.188 2.313l-2.73-.028L371 444l2.438 2.75c3.46 4.188 3.46 4.188 3.562 7.25-1.15 4.46-5.247 6.751-9 9-5.678 1.893-11.794 2.018-17.25-.5-2.95-2.683-5.517-5.513-8.04-8.598-1.75-1.946-3.571-3.403-5.71-4.902-1.247 7.767-1.241 15.471-1.25 23.313l-.005 2.34c-.002 17.327 1.247 34.442 5.255 51.347l1.11-1.43c3.678-4.735 7.36-9.467 11.043-14.197a3935.38 3935.38 0 0 0 3.412-4.39 610.894 610.894 0 0 1 19.013-23.322c1.47-1.717 2.933-3.44 4.395-5.165a610.658 610.658 0 0 1 17.453-19.703 501.24 501.24 0 0 0 6.949-7.73 133.94 133.94 0 0 1 8.11-8.399l1.822-1.746a214.893 214.893 0 0 1 3.616-3.365c1.871-1.72 1.871-1.72 4.077-4.553.19-8.326-8.724-17-13.719-23.11-16.853-21.355-31.05-45.076-44.165-68.87a584.736 584.736 0 0 0-2.209-3.961C351.266 317.127 342.827 296.92 337 276l-1.023-3.621c-1.325-4.963-2.113-9.217-1.977-14.379l-1.63.519c-37.864 11.966-37.864 11.966-53.745 3.731-4.05-3.472-5.434-6.469-6-11.75.576-5.38 2.317-8.339 5.938-12.313 4.214-3.137 8.266-3.734 13.437-3.187 4.65 1.332 9.052 3.103 13.51 4.969 3.887 1.61 7.805 3.14 11.722 4.674 2.077.814 4.153 1.634 6.226 2.46l2.878 1.14 2.58 1.026c2.03.841 2.03.841 4.084.731l.805-3.508 1.07-4.617.527-2.305c.996-4.277 2.128-8.424 3.598-12.57l-1.61-1.102c-4.43-3.152-7.944-5.904-10.39-10.898-.555-4.023-.643-6.035 1.625-9.438 2.978-1.958 4.879-1.88 8.375-1.562l-.875-1.54c-2.284-4.234-4.021-7.532-3.125-12.46 1.892-2.593 3.346-3.735 6.313-4.938 3.818-.088 6.342 1.171 9.687 2.938l2 3 .262-1.977c.991-6.166 2.246-9.643 6.738-14.023 3.592-1.796 7.384-1.441 11.203-.398ZM357 182c-1.14 3.422-1.098 6.087-1.063 9.688l.028 3.574L356 198c-4.494-1.196-6.756-2.258-9.375-6.125l-1.523-2.195L344 188c-2.437.27-2.437.27-5 1-2.25 2.697-2.25 2.697-1.813 5.125 1.133 4.006 2.45 7.942 3.813 11.875l-6.055.488c-2.34.386-2.34.386-3.945 3.512-.092 4.764.976 7.436 4.125 10.875 3.56 3.294 6.083 4.027 10.875 4.125l.25 2.125c1.147 4.398 3.559 7.684 6.75 10.875 3.033-.089 3.033-.089 6-1 2.486-3.729 2.303-6.691 2-11-.417-2.355-.417-2.355-1-4 3.435 1.145 3.924 1.934 5.938 4.813 3.142 4.452 3.142 4.452 7.062 8.187 2.044.305 2.044.305 4-1 3.865-3.423 3.865-3.423 5.27-8.188-.265-4.225-1.041-6.958-3.895-10.125L376 213c.313-3.225 1.75-5.241 3.625-7.813 1.931-2.949 2.723-4.668 2.188-8.187l-.813-3c-1.803-.702-1.803-.702-4-1l-1.875.938c-2.787 1.393-5.052 1.202-8.125 1.062l1.094-1.977c3.728-6.627 3.728-6.627 3.906-14.023-6.156-4.104-10.603-2.561-15 3Zm-75.438 58.5L279 243c.174 1.928.174 1.928 1 4 13.874 10.267 34.706 10.137 51 8-3.098-3.387-6.716-4.725-10.922-6.355l-2.358-.93c-1.646-.644-3.294-1.286-4.943-1.923-2.51-.973-5.01-1.966-7.511-2.962-1.604-.626-3.208-1.25-4.813-1.873l-2.248-.9c-5.535-2.108-11.89-4.193-16.642.443ZM277 248c.37 6.164 1.702 8.8 6 13 9.335 5.445 22.341 2.681 32.188.195 2.291-.683 4.557-1.4 6.812-2.195v-1l-2.867-.078c-14.706-.565-29.035-2.882-42.133-9.922Zm68 7c2.75 1.833 5.307 3.033 8.313 4.375 7.962 3.898 14.185 9.68 20.687 15.625l1-2c-6.121-8.312-11.823-14.87-22-18-2.772-.29-5.204-.203-8 0Zm-5 2c2.892 8.677 16.406 16.455 24.04 20.684 4.527 2.153 7.884 3.598 12.96 3.316-4.57-4.875-9.722-8.916-15-13l-2.777-2.188C353.527 261.467 347.478 257 340 257Zm149 97c-4.249 5.568-3.575 12.34-3 19a137.885 137.885 0 0 0 2.344 10.125c.822 3.603 1.363 6.544-.406 9.875-1.299 2.77-.938 4.141.062 7 1.688 2.44 1.688 2.44 4 4 2.219-.136 2.219-.136 4-1 .8-3.287 1.097-4.71 0-8 4.057 1.352 4.634 3.475 6.621 7.09 1.573 2.18 2.916 2.911 5.379 3.91 2.244-1.775 2.244-1.775 2.012-4.094l-.325-2.406-.3-2.406c-.296-2.143-.296-2.143-1.387-4.094h4l.688 1.813c1.784 2.973 3.042 3.979 6.312 5.187 5.156-.918 9.153-3.514 13-7 .052-2.423.052-2.423-1-5-3.279-1.765-6.224-2.848-9.875-3.563L519 384l-1-2 2.75-.188c4.055-1.013 5.06-2.323 7.25-5.812.958-3.013 1.192-5.847 1.25-9l.078-2.563c-.392-2.91-1.412-4.26-3.328-6.437-5.893.287-9.054 2.911-13 7l-2 3h-4l.188-3.188c-.203-4.114-.627-5.653-3.188-8.812-5.622-4.306-9.025-6.75-15-2Zm-171 44c-2.723 3.238-3.9 5.296-4.5 9.5.775 5.428 3.161 8.344 7.25 11.875L323 421l-2.16.629c-8.606 2.768-13.845 6.429-18.277 14.371-1.695 3.8-2.182 6.821-1.563 11 2.259 4.24 2.259 4.24 6 7 7.572.988 14.958-2.22 21.152-6.48l1.786-1.395C333 444 333 444 335.315 444.039c3.62 1.296 5.979 3.581 8.684 6.211l1.54 1.45c2.44 2.31 4.803 4.659 7.128 7.09 2.248 2.439 2.248 2.439 5.644 3.335 5.745-.195 9.695-3.132 13.688-7.125.558-2.388.558-2.388 0-5-2-2.462-2-2.462-4.688-4.625-.87-.755-1.74-1.51-2.636-2.29-2.606-2.126-2.606-2.126-5.426-3.69-2.811-1.743-3.325-3.284-4.25-6.395h4l.684 1.86c2.574 4.185 7.779 4.96 12.316 6.14 4.824.805 7.796.794 11.938-1.938 2.597-3.856 4.018-7.372 4.062-12.062-1.672-2.572-2.811-3.586-5.695-4.59-3.204-.57-6.304-.503-9.555-.473l-3.828.028L366 422l.566-2.809c.563-4.144-.28-5.724-2.566-9.191-3.186-3.331-4.98-4.839-9.563-5.563-4.026.66-5.687 1.57-8.437 4.563-.88 2.635-.88 2.635-1 5h-4l-.309-2.254C338.874 404.53 331.142 398.728 325 395c-3.042 0-4.54 1.244-7 3Zm103.956 39.8c-.824.83-1.65 1.659-2.499 2.512l-2.756 2.762-1.44 1.459c-1.42 1.438-2.849 2.87-4.279 4.299-5.198 5.231-10.189 10.565-14.982 16.168-1.517 1.691-3.037 3.38-4.563 5.063l-2.28 2.539a743.014 743.014 0 0 1-4.063 4.484C381.8 480.504 381.8 480.504 381 485l2.922.734 3.828 1.016 3.797.984c3.535 1.296 5.151 2.338 7.453 5.266l1 3c-2.524-.23-5.042-.484-7.563-.75l-2.134-.188c-3.937-.435-6.714-1.126-10.08-3.265L377 490c-3.005 1.036-4.74 2.546-6.707 4.992l-1.506 1.858-1.6 2.025-1.687 2.107c-6.498 8.173-12.88 16.472-18.962 24.96C345 528 345 528 342.395 530.708c-2.45 5.784-.155 11.472 1.355 17.356.34 1.396.68 2.794 1.017 4.191.874 3.58 1.783 7.15 2.708 10.716.489 1.89.97 3.782 1.45 5.674 7.388 28.906 16.849 57.33 27.387 85.231l.844 2.242c4.212 11.147 8.917 22.035 13.844 32.883 32.57-31.92 50.157-82.763 56-127l.29-1.965c5.573-41.87-3.482-86.144-21.29-124.035-2.204-.22-2.204-.22-4.044 1.8Zm323.356 34.7L744 474c1.776 5.465 1.776 5.465 6.188 8.938L753 484v4h-7l-2-6c-4.694.428-4.694.428-9.063 2.063-1.411 2.917-.545 5.138.227 8.195L736 494l3 1 3.063-2.063c3.32-2.06 5.21-2.026 9-1.187l2.566.652c2.894.73 5.405.969 8.371.598 2.372-2.896 2.372-2.896 1.75-6.563-.436-3.483-.436-3.483-2.75-5.437a89.901 89.901 0 0 0-6-1l-.25-2.25c-.904-3.313-2.082-4.631-4.75-6.75-3.003-.332-3.003-.332-4.688 1.5ZM667 483c-.077 4.516-.102 8.59 1 13l-1.898-.035-2.477-.027-2.46-.036c-2.214-.047-2.214-.047-4.165 1.098-1.33 3.992-.815 6.263 1 10 3.47-.458 6.674-.891 10-2l.125 1.75c1.365 3.509 3.61 4.555 6.875 6.25 2.796-.122 2.796-.122 5-1-.349-3.255-1.021-4.019-3.563-6.25L674 504l3.438-.938c3.35-.691 3.35-.691 4.562-2.062.263-4.032.294-5.559-2-9-3.278.752-3.278.752-5 4l-3 1 .07-2.3.055-3.012.07-2.989c.012-2.923.012-2.923-2.195-5.699h-3Zm82 1 1 2Zm-359 6 1 2 2-1-3-1Zm67 20c2.187 1.385 2.187 1.385 5.457-.117a264.05 264.05 0 0 0 4.356-1.758l2.295-.946c7.89-3.395 17.037-7.897 21.892-15.179-13.103 0-24.93 9.45-34 18Zm34-13-1.336 1.25c-9.823 8.43-23.15 13.732-35.664 16.75 4.47 4.47 11.655 5.208 17.75 5.375 6.288-.221 10.106-1.947 14.438-6.5 3.084-3.823 5.012-8.014 5.812-12.875-.37-2.202-.37-2.202-1-4Zm104 6c.517 5.304 2.326 8.515 5 13v2l-1.875.688c-2.85 1.76-3.319 3.086-4.125 6.312.075 3.674.579 5.448 2.813 8.375 5.87 2.993 12.788 2.198 19.125.875 3.062-.25 3.062-.25 6 1.688L624 538c4.662-1.498 5.866-4.885 8-9-2.546-3.524-2.546-3.524-6-6l-1-3 2.875.188L631 520c2.316-3.474 2.27-4.964 2.25-9.063l.016-3.222c.01-2.863.01-2.863-2.266-4.715-5.877-.882-10.747 1.674-16 4l-.34-1.89c-.51-2.396-.51-2.396-3.222-3.86-6.056-2.202-11.066-2.279-16.438 1.75Zm-271.867 13.602C318.7 518.86 315.259 521.13 312 525v2c4.152-1.442 7.3-3.501 10.813-6.125l2.957-2.195L328 517c-2.809-1.265-2.809-1.265-4.867-.398Zm.805 6.898-1.721 1.3A2149.342 2149.342 0 0 0 318 528c2.365.844 3.51 1.217 5.852.18 3.661-2.694 5.966-4.584 7.148-9.18-2.41 0-5.13 3.028-7.063 4.5ZM704 540c1.309 3.122 1.309 3.122 4 5a95.33 95.33 0 0 0 5.125.063l2.758-.028L718 545c-3.015-2.01-5.215-2.726-8.688-3.625-.993-.26-1.987-.52-3.011-.79L704 540Zm2 7 1 2h9v-1l-10-1Zm-233 9-2.085.876A504.11 504.11 0 0 0 457 563v1c17.325.73 37.742-.952 52-12-18.402-.734-18.402-.734-36 4Zm29.254 2.145a738.55 738.55 0 0 0-6.986 2.498c-10.56 3.697-20.813 4.682-31.955 4.982l-3.608.117c-2.901.093-5.803.18-8.705.258 3.238 6.766 6.79 11.314 14 14 11.563 1.623 21.954-5.115 30.965-11.64A161.396 161.396 0 0 0 508 558c-2.228-1.4-2.228-1.4-5.746.145ZM635 627c-19.78 10.562-38.53 21.894-56 36l-1.886 1.515C559.377 678.88 544.417 695.498 536 717l-1.027 2.586c-3.11 9.314-3.64 21.891-.973 31.414 3.123-1.386 5.242-2.995 7.645-5.414l2.052-2.059 2.115-2.152 2.08-2.082a242.509 242.509 0 0 0 11.409-12.35c2.77-3.168 5.68-6.202 8.574-9.255 4.838-5.145 9.46-10.38 13.867-15.903 2.113-2.606 4.287-5.14 6.492-7.669C604.336 675.624 618.564 655.487 632 635c1.33-2.002 2.665-4.001 4-6l-1-2Zm1 7 1 2Zm-1 2-.971 1.443c-11.819 17.515-24.111 34.539-37.592 50.816-2.082 2.523-4.131 5.072-6.187 7.616-3.59 4.385-7.326 8.611-11.14 12.8a355.297 355.297 0 0 0-5.485 6.2c-9.054 10.377-18.533 20.396-27.995 30.4-1.342 1.42-2.679 2.847-4.013 4.276-3.185 3.32-6.326 5.993-10.18 8.511C519.24 766.314 509.514 778.121 501 790c2.031 1.29 2.031 1.29 4.543.338a882.718 882.718 0 0 0 10.582-3.713l1.928-.69c49.683-17.91 83.65-65.128 105.635-111.419 3.666-8 6.713-16.15 9.437-24.516l.933-2.844.825-2.656.73-2.344c.428-2.384.143-3.876-.613-6.156Zm-279.605 4.867-4.67 2.434c-2.453 1.284-4.904 2.57-7.353 3.858a2176.268 2176.268 0 0 1-7.102 3.708l-2.192 1.162c-4.3 2.233-8.373 3.801-13.078 4.971v1c13.426.542 26.522.697 37.414-8.426 3.757-3.729 5.965-7.297 6.586-12.574-3.525 0-6.54 2.247-9.605 3.867ZM533 637c2.73 11.899 8.087 16.716 18.062 23.069 2.622 1.624 5.001 2.952 7.938 3.931-4.18-9.13-14.564-22.017-23.832-26.313L533 637Zm-217.688 11.5c-2.28 2.465-3.395 4.291-4.312 7.5 15.251.634 33.293-9.517 45-19-12.91 0-30.273 3.571-40.688 11.5ZM532 647c-.727 6.687 1.449 11.373 5 17 4.445 4.816 10.585 6.793 17.027 7.184 2.665.003 5.312-.05 7.973-.184v-2c-1.55-1.178-1.55-1.178-3.586-2.285l-2.309-1.346-2.48-1.432c-7.344-4.346-13.616-8.834-19.625-14.937l-2-2Zm-105 75c-9.783 11.089-18.953 25.659-23 40 .265 3.789.265 3.789 1 7 3.314-2.737 4.849-6.397 6.652-10.195l1.035-2.142c1.09-2.26 2.17-4.524 3.25-6.788l2.17-4.5c1.693-3.514 3.37-7.034 5.036-10.561.758-1.604 1.522-3.205 2.287-4.805.92-1.975 1.758-3.987 2.57-6.009l-1-2Zm5 1-2.676 5.535-.853 1.763c-1.568 3.242-3.13 6.487-4.684 9.737-2.997 6.261-6.029 12.485-9.271 18.625l-1.581 3.068a212.32 212.32 0 0 1-2.997 5.596c-2.62 5.152-3.24 8.159-1.715 13.824.56 1.63 1.14 3.252 1.777 4.852 5.814-1.229 8.55-5.366 12-10 9.108-15.017 12.86-34.52 12-52l-2-1Zm149 26c6.68 6.87 15.342 11.126 25 12 10.004-.014 19.226-2.151 28-7v-2c-7.681-2.88-15.217-3.15-23.313-3.098l-2.588.005c-2.7.005-5.4.018-8.099.03-1.842.006-3.685.01-5.527.014-4.491.011-8.982.028-13.473.049Zm-1 5c.301 6.026 3.069 9.682 7 14 4.293 3.64 8.36 5.37 14 5 9.36-1.887 17.982-5.882 26-11l1-2-2.422.438c-14.951 2.527-28.564 2.79-41.836-5.45-1.698-1.152-1.698-1.152-3.742-.988Zm-257.715 29.531c-1.505 1.395-1.505 1.395-1.285 3.469 12.59 2.406 25.015 3.327 37.813 3.375l2.071.023c14.876.133 28.595-1.92 42.116-8.398-2.523-2.523-4.115-2.6-7.602-3.254-1.13-.215-2.26-.43-3.425-.65l-3.598-.659c-1.164-.22-2.328-.442-3.527-.67-19.995-3.747-46.063-7.969-62.563 6.764Zm77.527 2.282c-12.709 5.088-25.295 5.626-38.802 5.468a861.887 861.887 0 0 0-8.114-.047c-9.006-.04-17.933-.25-26.896-1.234 17.83 13.809 46.585 18.292 68.432 15.713 8.532-1.022 8.532-1.022 16.568-3.713-1.24-6.172-2.896-12.067-5-18-2.486 0-3.914.796-6.188 1.813Zm69.32 29.875C462.692 822.43 458.18 829.737 454 838l-1.277 2.516c-3.93 8.719-6.098 19.943-5.723 29.484 2.351-2.982 4.206-6.044 6.012-9.383l1.773-3.25 1.902-3.492C466.416 836.141 477.113 819.044 488 802c-6.047 0-14.586 9.675-18.867 13.688ZM385 869c4.99 4.133 10.943 5.92 17 8l2.406.836c8.164 2.213 18.416 1.16 26.594-.836l2-2c-6.353-.857-12.707-1.711-19.061-2.563-2.162-.29-4.325-.582-6.487-.874-3.105-.418-6.21-.835-9.315-1.25l-2.936-.398-2.73-.364-2.402-.323c-2.22-.283-2.22-.283-5.069-.228Zm-3 3c5.428 10.217 14.373 18.464 25.438 22.063 8.386 1.875 15.04.15 22.312-4.25 4.556-3.119 8.719-6.547 12.25-10.813v-1c-5.45-.188-10.483.157-15.875 1-14.71 2.194-26.144.03-39.727-6.012-2.274-1.115-2.274-1.115-4.398-.988Zm76 3c3.68 1.966 6.999 2.622 11.125 3.313 11.714 2.206 18.531 6.271 25.875 15.687 1.343-2.886 1.343-2.886.031-5.086-4.828-7.217-9.481-11.703-18.031-13.914-3.297-.229-6.572-.19-9.875-.125l-2.664.027c-2.154.024-4.307.06-6.461.098Zm-5 3c2 2.136 3.888 3.651 6.45 5.059.675.38 1.35.76 2.047 1.15l2.19 1.229c6.245 3.588 12.175 7.43 17.938 11.75l1.932 1.437c4.516 3.45 8.513 7.275 12.443 11.375 1.265-1.99 1.265-1.99.434-4.285-3.568-9.949-7.24-17.36-16.809-22.5-8.705-4.029-17.09-4.817-26.625-5.215Zm43 16 1 2Z" fill="#E2DED7"/><path d="M506 376c2.438 1.625 2.438 1.625 4 4-.063 3.125-.063 3.125-1 6-3.695 2.463-5.633 2.39-10 2-2-1.063-2-1.063-3-3 .125-3.563.125-3.563 1-7 3.491-2.327 4.892-2.503 9-2Zm-4 2-2 2c.32 2.603.32 2.603 1 5l3 1 2-5-4-3ZM340 421c2.438 1.625 2.438 1.625 4 4-.25 3.25-.25 3.25-1 6-5.253 2.2-5.253 2.2-8.813 1.25C332 431 332 431 331 429c-.25-3-.25-3 0-6 3.491-2.327 4.892-2.503 9-2Zm-4 3-1 5h4l1-4-4-1ZM364 206c2 3 2 3 1.75 6.125L365 215c-2.229 1.114-3.53 1.165-6 1.188l-2.125.042C355 216 355 216 353 214c-.375-2.938-.375-2.938 0-6 3.172-3.934 6.42-3.187 11-2Zm-6 2-1 5h4l1-3-1-2h-3ZM617 512.75c3 .25 3 .25 5 2.25.25 2.5.25 2.5 0 5-2 2-2 2-5 2.25-3-.25-3-.25-5-2.25-.25-2.5-.25-2.5 0-5 2-2 2-2 5-2.25Zm-1 3.25v3h2v-3h-2ZM673 499c.563 1.938.563 1.938 1 4-1 1-1 1-4.063 1.063L667 504l-1-5c2.667-1.333 4.167-.671 7 0Z" fill="#E2DED7"/></svg>