<svg xmlns="http://www.w3.org/2000/svg" width="1001" height="1586"><path d="M480 119c3.234-.353 4.693-.196 7.473 1.582l2.59 2.23 2.906 2.497c1.011.895 2.022 1.793 3.031 2.691l1.516 1.329c13.307 11.691 27.819 24.683 30.03 43.175 2.219 17.114 7.767 33.742 12.796 50.191l.728 2.395a884.74 884.74 0 0 0 1.38 4.49c.89 2.92 1.55 5.349 1.55 8.42h2l.29-1.737c1.322-7.267 3.47-14.109 5.898-21.076l1.2-3.473c2.546-7.18 5.329-13.779 9.3-20.296 2.242-4.13 2.454-7.738 1.89-12.34-4.383-42.22-4.383-42.22 6.422-57.078l1.313-1.938c2.164-1.362 4.047-1.849 6.605-1.714 9.964 3.122 17.564 16.09 22.273 24.875 3.184 7.49 3.902 16.051.875 23.652-6.286 12.526-17.908 17.564-30.441 22.438-6.262 4.025-8.955 12.26-11.57 18.957l-1.038 2.632c-3.518 9.108-6.284 18.383-8.892 27.786l-.766 2.726c-14.17 50.478-24.925 101.948-35.234 153.336l-.652 3.24c-.598 2.976-1.19 5.954-1.778 8.932l-.528 2.635-.471 2.415-.41 2.08c-.383 2.28-.383 2.28-.286 5.948l2.379-2.598c9.555-10.407 9.555-10.407 13.433-14.214 2.888-2.84 5.539-5.831 8.18-8.899 1.951-2.225 3.95-4.4 5.962-6.57a297.693 297.693 0 0 0 13.745-15.89 338.124 338.124 0 0 1 6.234-7.411C578.192 343.173 597.947 318.514 605 291l-1.788-.804c-6.488-3.507-10.931-10.182-15.024-16.134l-1.541-2.218C567.149 243.537 567.149 243.537 569 230c2.106-7.84 6.147-15.431 13-20 6.092-.12 9.038 2.275 13.3 6.21C597 218 597 218 599 221c2.091-1.006 4.08-2.05 6.043-3.29 5.337-3.324 9.663-4.95 15.957-3.71 5.83 2.629 9.03 7.504 12 13 .668 2.281.668 2.281 1 4l2.875-.984c4.7-1.339 9.269-1.31 14.125-1.266l2.617-.023c12.007.036 12.007.036 16.246 4.027 1.386 2.738 1.877 5.149 2.324 8.184l.481 3.09c.3 2.69.397 5.267.332 7.972l2.625.25c5.336 1.186 8.348 3.341 11.563 7.75 3.747 7.322 6.697 17.807 4.812 26-4.262 5.533-10.455 6.018-17 7-2.756.286-5.51.46-8.277.605l-2.353.126c-7.988.376-15.943.236-23.932-.028-2.399-.079-4.798-.146-7.198-.21-8.111-.235-16.17-.596-24.24-1.493l-.309 3.531c-.552 4.319-1.88 8.054-3.754 11.969l-1.021 2.151c-7.892 15.85-18.767 30.63-29.916 44.349l-2.219 2.762c-5.349 6.601-10.84 13.084-16.348 19.551a1116.98 1116.98 0 0 0-4.238 5.027c-7.404 8.784-15.205 17.15-23.12 25.473-4.12 4.344-8.203 8.724-12.291 13.099l-1.772 1.893-1.548 1.655C511 425 511 425 509.385 426.426c-1.727 1.963-2.05 3.401-2.56 5.957l-.563 2.742-.575 3-.623 3.117C502.189 455.792 499.599 470.4 497 485l2.003-1.82c4.334-3.921 8.654-7.81 13.247-11.43 5.757-4.655 11.126-9.674 16.52-14.738a233.205 233.205 0 0 1 7.605-6.825c3.386-2.917 6.505-6.048 9.637-9.234 1.868-1.835 3.795-3.52 5.8-5.203 9.513-8.22 18.76-18.325 24.188-29.75h4c-2.172 28.943-10.027 55.99-31 77l-2.074 2.11c-13.723 13.088-33.913 21.49-52.895 21.964L492 507l-.332 3.535c-.702 6.292-1.845 12.507-2.966 18.735-.398 2.212-.792 4.425-1.185 6.638-.977 5.493-1.96 10.985-2.944 16.476-.833 4.655-1.663 9.31-2.49 13.964-.387 2.166-.776 4.33-1.166 6.496-1.198 6.705-2.28 13.372-2.917 20.156l2.21-1.73c7.919-6.162 15.992-12.085 24.145-17.93a776.829 776.829 0 0 0 8.883-6.461c19.372-14.26 39.742-26.968 60.318-39.401 19.831-11.991 36.07-26.202 50.108-44.731a272.384 272.384 0 0 1 3.934-5c6.246-7.83 11.468-16.036 16.402-24.747l1.414-2.41c2.531-4.58 4.404-9.33 3.586-14.59-1.854-3.145-4.383-5.48-7-8-14.421-14.865-24.432-31.303-24.21-52.426.497-8.435 3.153-15.532 9.21-21.574 3.775-2.432 6.566-2.074 10.871-1.492 2.6.601 4.245 1.608 6.129 3.492l1.813-1.438c5.523-3.945 12.702-3.1 19.187-2.562 4.565 2.125 7.072 4.946 10 9l1.66-.977c8.654-3.785 19.036-.183 27.34 2.977 3.792 1.658 3.792 1.658 5.25 4.063 1.993 7.804.369 14.47-2.25 21.937l3.488-.234c4.94.004 8.417 1.673 12.7 3.984l2.076 1.055c3.918 2.036 7.468 4.182 10.736 7.195.625 2.5.625 2.5 0 5-9.926 8.982-23.82 12.962-36.313 17l-4.741 1.558C659.906 436 659.906 436 654 436v3.5c-1.899 17.198-16.537 33.56-27 46.5l-2.39 2.984c-10.59 13.108-21.504 23.637-35.122 33.465-2.9 2.1-5.714 4.286-8.488 6.551 15.76 2.508 31.05 3.413 47 3v3c-26.878 14.04-26.878 14.04-41.617 10.344-5.624-2.197-8.817-5.597-12.383-10.344l-2-2c-13.624 8.27-26.946 16.857-40 26l-2.186 1.527c-4.956 3.465-9.892 6.96-14.814 10.473l-2.166 1.545a1170.194 1170.194 0 0 0-11.107 8.033c-3.357 2.455-6.764 4.819-10.204 7.156l-5.46 3.828c-.86.565-1.718 1.13-2.603 1.71-5.752 4.108-7.673 7.554-8.963 14.48L474 611l-.6 3.172c-7.34 39.401-10.013 79.87-12.4 119.828l-.181 2.998c-2.101 35-3.372 70.022-4.507 105.064l-.101 3.128a15525.807 15525.807 0 0 0-.747 23.51c-.276 8.77-.543 17.525-.464 26.3a1066.208 1066.208 0 0 0 45.316-35.004 830.55 830.55 0 0 1 8.872-7.121c4.385-3.495 8.66-7.11 12.93-10.743a557.508 557.508 0 0 1 10.257-8.507c9.728-7.925 19.146-16.23 28.441-24.656a416.667 416.667 0 0 1 6.059-5.344c4.932-4.298 9.731-8.741 14.543-13.172 1.575-1.447 3.156-2.886 4.738-4.324 5.07-4.612 10.085-9.244 14.834-14.192C603 770 603 770 605.076 768.503c3.175-2.32 5.51-4.162 6.693-8 .322-2.993.391-5.891.364-8.901.016-1.1.032-2.2.05-3.332.03-3.55-.007-7.095-.058-10.645l-.019-3.65c-.132-17.275-1.487-30.986-9.806-46.352-2.337-4.715-3.764-9.71-5.237-14.748l-.857-2.888c-4.054-14.018-6.389-27.815-6.331-42.424l-.012-3.045.004-2.89.004-2.622C590 617 590 617 591 616c9.71.308 18.153 3.997 25 11 11.455 15.507 11.125 34.84 8.492 53.155A206.308 206.308 0 0 1 617 710a79.377 79.377 0 0 0-.114 4.655v2.85l.016 3.07.005 3.148c.005 3.321.018 6.643.03 9.965.006 2.25.01 4.5.014 6.751.011 5.52.028 11.04.049 16.561 2.866-2.84 5.728-5.685 8.588-8.533.97-.965 1.94-1.928 2.912-2.891 5.21-5.165 10.303-10.358 15.076-15.931 1.716-1.983 3.538-3.824 5.424-5.645 3.214-3.171 6.218-6.456 9.16-9.879 2.035-2.346 4.123-4.638 6.215-6.933 3.902-4.324 7.606-8.775 11.266-13.305a339.252 339.252 0 0 1 6.144-7.267c7.902-9.16 15.044-18.88 22.215-28.616l1.745-2.35a432.556 432.556 0 0 0 28.942-44.462l1.28-2.227 1.17-2.106 1.022-1.823c2.046-4.944 1.877-9.366 1.099-14.575l-.543-3.756-.59-3.889c-8.032-54.31-8.032-54.31 1.117-69.933 1.678-2.15 3.312-3.656 5.758-4.879 9.509-.649 17.12-.558 25 5.188l2 1.812 2.375-2.938c1.998-2.471 3.264-3.839 6.508-4.37 5.83-.336 8.938.896 13.39 4.648 6.642 6.386 6.642 6.386 6.825 11.262l-.035 3.023-.028 3.04L801 532l2.29-.977c4.847-1.83 8.48-1.447 13.335.227 5.648 3.524 7.542 11.205 8.988 17.36 1.189 7.348.741 13.164-3.613 19.39-2.457 2.328-4.996 3.997-7.824 5.848-2.97 2.012-5.784 4.136-8.614 6.34-17.94 13.466-37.636 23.34-60.562 22.812l-1.703 3.32C731.683 628.42 717.403 649.367 702 669c-.928 1.201-1.855 2.403-2.781 3.605-6.186 7.99-12.636 15.73-19.219 23.395l-3.163 3.69-1.616 1.885L674 703l3.339-.687c51.753-10.619 51.753-10.619 66.668-10.047 9.743.347 15.553.29 23.063-6.621 3.483-3.145 7.143-5.468 11.18-7.832 1.072-.63 1.072-.63 2.167-1.271 11.919-6.773 26.09-12.881 40.02-10.046 5.197 1.554 8.64 3.782 12.563 7.504-1.047 7.8-3.678 13.43-9.82 18.504C805.51 704.487 780.717 700.5 761 697c-1.552-.36-3.101-.728-4.648-1.105-4.218-.964-8.231-1.107-12.54-.832l-2.415.145c-18.683 1.387-37.194 5.37-55.46 9.417l-2.026.442c-1.9.418-3.799.85-5.696 1.285l-3.278.744c-5.26 1.619-8.507 4.225-12.062 8.341l-2.348 2.676L658 721a845.47 845.47 0 0 1-5.563 6.125l-1.411 1.544c-3.266 3.552-6.638 6.973-10.08 10.353-1.785 1.815-3.443 3.677-5.09 5.615-4.221 4.855-8.735 9.39-13.293 13.926l-2.448 2.458c-4.302 4.296-8.686 8.413-13.295 12.377-2.737 2.409-5.276 4.993-7.82 7.602-3.775 3.821-7.593 7.488-11.688 10.969-3.286 2.886-6.444 5.905-9.625 8.906a258.436 258.436 0 0 1-15.945 13.852c-3.192 2.646-6.216 5.439-9.242 8.273a255.67 255.67 0 0 1-14.617 12.652c-3.369 2.744-6.658 5.571-9.946 8.41-4.662 4.018-9.37 7.949-14.203 11.762a523.051 523.051 0 0 0-6.343 5.133c-7.29 5.983-14.652 11.817-22.227 17.435-6.097 4.528-12.084 9.19-18.05 13.889l-2.153 1.688-1.881 1.482C461 897 461 897 457.805 898.305c-3.386 3.253-3.294 4.277-3.59 8.843a363.856 363.856 0 0 0-.055 8.004c-.016 1.472-.035 2.944-.057 4.416a988.576 988.576 0 0 0-.077 9.484c-.02 4.94-.094 9.877-.179 14.816-.16 9.642-.276 19.284-.38 28.927-.03 2.805-.062 5.61-.094 8.415-.359 31.598-.506 63.19-.373 94.79 4.005-3.98 8.007-7.964 12.006-11.95 1.357-1.353 2.716-2.705 4.076-4.056 9.55-9.435 9.55-9.435 18.545-19.392 2.154-2.513 4.467-4.828 6.81-7.165l2.622-2.628c2.119-2.068 4.32-4.006 6.57-5.93 5.573-4.835 10.693-10.13 15.871-15.379 11.434-11.589 11.434-11.589 17.623-16.877 3.392-2.933 6.622-6.04 9.877-9.123a474.828 474.828 0 0 1 16-14.5l1.716-1.496c8.548-7.451 17.276-14.616 26.284-21.504l1.816-1.403c27.41-21.098 27.41-21.098 38.496-20.722L635 924c-.472 7.34-1.849 14.082-3.938 21.125l-.922 3.125c-8.263 27.06-20.51 52.183-40.14 72.75l-1.848 2.074c-12.897 13.939-32.225 22.454-51.078 23.297-2.128.04-4.257.061-6.386.066l-3.41.017c-8.63-.109-16.509-1.42-24.78-3.85l-2.428-.706-2.1-.666c-2.705-.319-3.698.263-5.97 1.768a129.001 129.001 0 0 0-5.395 5.164l-1.546 1.548a1056.865 1056.865 0 0 0-3.23 3.253 1229.35 1229.35 0 0 1-4.878 4.898c-4.897 4.915-9.751 9.834-14.18 15.183C461 1075 461 1075 458.966 1076.674c-3.228 2.718-5.588 4.909-6.696 9.062-.263 3.282-.273 6.476-.192 9.768v3.744c.013 3.392.063 6.78.132 10.171.04 2.169.065 4.337.085 6.507.218 23.918 1.39 47.755 2.862 71.624 1.609 26.098 2.804 52.196 3.78 78.325l.12 3.197c1.737 46.52 3.13 93.05 4.522 139.582.113 3.804.228 7.608.343 11.412.33 10.944.656 21.889.975 32.833.098 3.357.197 6.713.299 10.07.593 19.685.953 39.335.804 59.031h-4l-.049-1.69c-1.932-67.314-3.959-134.624-6.277-201.925-.181-5.267-.36-10.533-.539-15.8-1.023-30.21-2.142-60.412-3.568-90.606a5532.45 5532.45 0 0 1-.274-5.917c-.381-26.74-.381-26.74-6.137-52.601l-.85-2.403a671.231 671.231 0 0 0-2.806-7.683 2253.5 2253.5 0 0 0-7.4-20.377c-1.45-3.95-2.883-7.905-4.317-11.86-8.262-22.775-16.748-45.465-25.283-68.138l-1.228-3.267c-4.898-13.021-9.91-25.985-15.2-38.853l-1.218-2.997-1.087-2.644C385 993 385 993 385 990c-.632.315-1.263.63-1.914.953-23.138 11.069-47.905 11.955-72.052 3.84C288.01 986.61 263.184 971.524 248 952c1.203-.656 2.413-1.3 3.625-1.938l2.04-1.09c26.18-10.901 66.372 6.093 91.148 14.59l2.415.828A563.429 563.429 0 0 1 378 976c-12.561-32.103-25.944-64.09-42.5-94.375l-1.13-2.087c-2.522-4.485-5.363-9.238-9.37-12.538-3.59-.05-3.59-.05-6.184.516-29.964 5.153-65.44-6.84-94.128-15.203l-2.8-.79c-6.034-1.846-9.703-4.116-13.2-9.57-1.32-3.75-.736-7.182.312-10.953 3.64-7.054 9.35-11.353 16.734-13.969A152.996 152.996 0 0 1 233 815l-1-3c-.452-9.35-.55-20.722 6-28 3.85-3.688 6.856-5.838 12.313-6.25 3.989.27 6.206 1.384 9.687 3.25l-.176-3.543c-.047-1.548-.092-3.096-.137-4.644l-.126-2.33c-.092-4.263.044-5.963 2.709-9.471 2.492-1.837 3.725-2.693 6.73-3.012l2.016-.238c10.665-.355 21.884 2.736 31.382 7.504 1.611.873 1.611.873 3.602.734a73.645 73.645 0 0 0 2.5-4.125c5.979-9.177 16.145-12.637 26.5-14.875 3.814-.558 7.216-.83 11 0 4.648 3.794 6.29 8.05 7 14 2.372 29.268-9.2 59.617-18.547 86.887l-1.273 3.748a139.77 139.77 0 0 1-2.3 6.134c-1.073 2.57-1.073 2.57-1.88 6.231 1.146 2.876 1.146 2.876 3.563 5.188C385.121 930.853 407.717 1035.963 435 1111l2.286 6.286c3.239 8.904 6.476 17.81 9.714 26.714l.013-1.675c.31-40.442.638-80.884.987-121.325l.03-3.492c.743-86.3 2.001-172.66 9.778-312.963.997-13.227.133-24.067-8.273-34.791-17.88-19.423-44.617-28.645-68.66-37.754-24.149-9.185-45.625-20.904-65.875-37l-1.697-1.342C299.903 582.964 287.306 570.712 277 557c-.475-.625-.95-1.25-1.438-1.895C239 506.701 239 506.701 239 490c4.863.433 6.614 2.376 9.875 5.875 18.87 18.378 52.304 26.19 76.863 34.45l3.346 1.126a2132.744 2132.744 0 0 0 16.456 5.462c40.954 13.525 69.298 41.091 90.419 78.256.995 1.75 2.01 3.49 3.025 5.23 9.403 16.736 16.17 35.056 21.016 53.601l.48-3.766A5054.37 5054.37 0 0 1 463 651l.552-4.204c.598-4.537 1.207-9.073 1.823-13.609l.317-2.342c1.367-10.035 3.044-19.928 5.12-29.845 6.437-31.585-4.409-57.703-14.734-87.23l-1.031-2.952c-1.717-4.91-3.439-9.817-5.17-14.722l-1.912-5.444-.908-2.559C445 482.226 445 482.226 445 480l-2.16-.292c-10.2-1.469-20.22-3.61-30.277-5.833l-2.71-.597c-11.942-2.638-23.838-5.413-35.666-8.528l-3.546-.922c-6.613-1.79-12.849-4.008-19.126-6.756-3.84-1.637-7.796-2.65-11.843-3.642-9.377-2.503-17.228-7.231-22.672-15.43-3.796-7.178-5.134-12.945-5-21 10.649-.709 19.242.217 28.125 6.504 6.733 6.022 9.76 14.052 10.563 22.871l.074 2.898c2.122 4.674 6.651 5.897 11.238 7.727 3.337 1.24 6.7 2.279 10.125 3.25l3 .864c20.733 5.787 41.945 10.235 63.082 14.282C441 476 441 476 443 477l-1.285-3.64c-1.569-4.446-3.133-8.893-4.696-13.34-.678-1.927-1.357-3.853-2.038-5.78-.975-2.763-1.947-5.529-2.918-8.295l-.928-2.62-.85-2.426-.754-2.14C429 437 429 437 429 435l-1.945-.676c-4.199-1.82-8.018-4.146-11.93-6.512l-2.634-1.585c-7.846-4.762-15.533-9.755-23.2-14.798-5.405-3.556-10.84-7.043-16.353-10.429-56.536-34.897-56.536-34.897-65.938-49-3.191-.74-3.191-.74-7-1.188-15.236-2.443-34.99-10.58-44.75-23.062-4.546-6.732-5.983-14.39-4.887-22.406 1.895-7.534 6.07-12.773 12.325-17.281 10.13-4.655 19.765-1.973 29.75 1.562l2.907 1.002C301.19 292.81 304.6 294.71 308 300c1.11 2.492 1.11 2.492 1.75 4.875l.672 2.367c1.31 6.25 1.681 12.17 1.5 18.547-.027 1.45-.053 2.901-.078 4.352-.044 2.25-.094 4.498-.166 6.747a386.616 386.616 0 0 0-.131 6.589l-.099 3.94c.898 5.833 4.521 9.083 9.161 12.59l2.006 1.53 2.135 1.588c.755.568 1.51 1.136 2.289 1.72 2.312 1.73 4.634 3.445 6.961 5.155l1.936 1.429C364.758 392.568 395.581 411.286 426 430c-4.313-13.306-9.038-26.423-14-39.5l-1.118-2.952c-8.782-23.153-17.744-46.235-28.382-68.61l-1.42-2.992A219.916 219.916 0 0 0 377 308l-1.41-2.631c-2.986-5.078-2.986-5.078-8.219-7.51l-3.933-.109c-1.431-.096-2.86-.204-4.29-.324l-2.133-.177C333.863 294.392 309.082 273.544 291 260l-2.598-1.89c-3.397-2.66-5.768-4.714-6.652-9.048-.115-4.551 1.409-8.531 4.25-12.062 4.731-4.415 8.537-4.343 14.863-4.156l3.262.156c2.148.102 4.296.186 6.445.25l2.868.14c3.391-.516 4.482-1.717 6.562-4.39.983-3.416 1.7-6.754 2.334-10.244.74-3.508 1.254-5.41 4.041-7.752 7.227-2.764 14.235.812 20.926 3.742A199.531 199.531 0 0 1 354 218c.44-1.29.877-2.583 1.313-3.875l.84-2.473a97.171 97.171 0 0 0 1.538-5.336c1.013-3.893 1.865-6.75 4.372-9.941 8.377-3.922 16.737-.494 24.91 2.434C390 200 390 200 391 201c.71 9.486-.645 18.58-2.375 27.875l-.771 4.303c-1.668 9.158-3.568 18.259-5.55 27.353l-.7 3.225a1869.747 1869.747 0 0 1-3.527 15.904l-1.296 5.863-.636 2.726-.55 2.522-.496 2.192c-.194 3.99 2.474 6.954 4.678 10.096 3.438 5.11 6.147 10.446 8.786 16.003l1.552 3.263C401.947 347.566 411.452 373.833 421 400c1.42-8 2.84-15.998 4.176-24.012 1.882-11.152 3.91-22.194 6.887-33.113l.706-2.596C437.88 322.313 437.88 322.313 443 319c3.25-.25 3.25-.25 6 0v2l-1.848.719c-7.008 4.172-8.883 17.084-10.828 24.62-3.996 16.479-6.864 33.375-9.199 50.161l-.364 2.6c-1.209 9.304-.784 16.019 2.544 24.79a1281.352 1281.352 0 0 0 3.36 9.109c2.086 5.601 4.129 11.218 6.179 16.833l1.292 3.529c4.558 12.475 8.914 25.019 13.239 37.577l1.134 3.29c1.822 5.29 3.642 10.579 5.46 15.87 1.605 4.669 3.22 9.335 4.842 13.999a7094.22 7094.22 0 0 1 3.358 9.686c.5 1.445 1.003 2.89 1.508 4.333 2.865 8.206 5.39 16.403 7.323 24.884 2.568-12.36 4.895-24.762 7.145-37.184l.433-2.39 1.807-9.983c14.165-78.266 29.2-156.337 47.74-233.7l.73-3.056c1.15-4.757 2.349-9.491 3.665-14.206l.724-2.618c.444-1.59.9-3.177 1.372-4.76 2.174-7.76.211-14.207-2.128-21.693l-1.54-5.035-.81-2.633c-4.866-15.81-9.403-31.62-13.138-47.742l-1.797.04c-14.082.18-25.824-6.014-35.973-15.614-7.164-7.792-10.73-16.451-10.492-27.055.639-5.783 2.562-11.241 5.262-16.371Zm96 3c-7.824 10.785-8.469 22.637-8.25 35.625l.016 3.734c.061 7.26.437 14.424 1.234 21.641 2.653-3.98 3.337-7.87 4.375-12.5l.653-2.897c1.73-7.948 3.08-15.935 4.284-23.978l.52-3.436c.83-5.792 1.36-11.338 1.168-17.189l-4-1Zm-94 2c-3.762 10.928-3.968 18.448 1 29 6.662 11.274 18.05 19.176 30.574 22.73 3.789.596 5.17.44 8.426-1.73l-1.469-1.215-2.031-1.722-1.969-1.653c-6.697-6.377-12.246-13.49-17.468-21.097l-1.816-2.615a491.01 491.01 0 0 1-12.673-19.339L483 124h-1Zm100 1-.38 2.772c-2.39 17.276-4.911 34.36-9.15 51.3A128.491 128.491 0 0 0 571 186c10.98-3.897 21.767-9.45 27.168-20.36 2.37-7.522 1.56-15.969-1.695-23.085-3.815-6.618-8.234-13.065-14.473-17.555Zm-90 5c1.636 5.018 4.578 8.947 7.625 13.188.54.755 1.078 1.511 1.634 2.29 4.063 5.662 8.255 11.187 12.741 16.522l1.973 2.379c2.422 2.896 2.422 2.896 5.027 5.621h2c-2.688-15.577-16.535-28.852-28-39l-3-1Zm-127.09 68.965c-2.366 3.76-3.724 7.517-5.098 11.722-2.77 8.228-2.77 8.228-3.812 10.313-4.57-.542-7.806-1.769-11.813-4-5.266-2.748-9.277-3.803-15.187-4-2.838 4.866-3.944 9.687-5.059 15.195-1.092 3.255-2.254 4.696-4.941 6.805-5.159 1.082-8.827.913-14 0-7.26-.628-7.26-.628-14 1.625-3.051 3.623-4.92 6.498-5.125 11.313 2.78 7.567 10.91 12.347 17.313 16.75l2.63 1.82C332.583 285.12 332.583 285.12 363 296a59.93 59.93 0 0 0 4-1c-8.542-7.043-17.15-13.942-26.047-20.532-5.377-3.998-10.621-8.144-15.818-12.373-2.934-2.377-5.885-4.627-9.006-6.755C313 253 313 253 312 250c5.172 2.3 9.092 5.329 13.375 8.938 5.483 4.54 11.031 8.946 16.75 13.187 7.4 5.49 14.658 11.146 21.875 16.875l1-2a87.815 87.815 0 0 0-3.2-6.422l-1.05-1.965a1315.076 1315.076 0 0 0-3.438-6.363A3345.126 3345.126 0 0 0 348 255l-1.013-1.869c-3.33-6.14-6.673-12.272-10.04-18.392A122.815 122.815 0 0 1 335 231c1.824.2 1.824.2 4 1 1.457 2.06 1.457 2.06 2.813 4.793l1.552 3.068 1.635 3.327c1.154 2.286 2.31 4.57 3.469 6.855l1.773 3.517c2.657 5.2 5.446 10.323 8.258 15.44l1.453 2.653A3022.99 3022.99 0 0 0 369 288h1l1-71 3-1v60h1c1.551-7.704 3.099-15.409 4.645-23.114.526-2.62 1.052-5.24 1.58-7.86.759-3.77 1.515-7.54 2.271-11.311l.714-3.536c2.212-10.97 2.212-10.97 2.853-22.117l-.028-2.902L387 203c-10.999-6.611-10.999-6.611-22.09-4.035ZM584 213c-6.82 6.852-10.35 12.24-11.438 21.875.436 9.538 5.786 17.89 11.063 25.5l1.864 2.74C592.9 275.505 592.9 275.505 603 285c.154-8.38-.317-16.649-1-25h4l-.07 2.387c-.134 8.076.615 15.673 2.07 23.613 3.608-3.511 6.925-7.173 10.125-11.063l1.3-1.564c1.804-2.178 3.55-4.335 5.13-6.682 1.744-2.041 2.877-2.16 5.445-2.691l-1.022 1.358c-1.556 2.067-3.11 4.136-4.665 6.204l-1.608 2.135A588.265 588.265 0 0 0 613 287c6.482-.726 12.646-2.38 18.938-4.063l3.228-.853A3046.22 3046.22 0 0 0 643 280v2l-3.113.77c-7.99 1.982-15.959 4.013-23.887 6.23v1c6.626.848 13.097 1.16 19.773 1.168l3.044.01c2.113.005 4.226.007 6.338.007 3.204.002 6.407.02 9.61.04 2.066.003 4.13.005 6.196.005l2.858.022c7.684-.026 16.43-.171 23.181-4.252 3.257-6.514.13-15.538-2-22-2.325-4.34-4.815-7.372-9-10-3.69-.802-3.69-.802-7-1l-.113-2.816c-.146-10.342-.146-10.342-4.887-19.184-7.962-1.667-18.678-2.978-26 1-.894 2.548-.894 2.548-1 5-3.125-1.06-3.994-1.99-5.746-4.863l-1.692-3.45c-2.932-5.967-6-9.979-11.562-13.687-5 .143-9.094 3.108-13 6-2.504 2.619-2.504 2.619-3 6h-4l-.563-2c-2.43-5.073-5.966-9.88-11.167-12.238L584 213Zm-322.25 80.188c-4.89 5.001-7.344 10.45-7.852 17.449.328 7.618 3.313 14.705 8.797 20C271.802 338.34 285.331 345.409 297 348a66.25 66.25 0 0 0 4-1c-3.622-1.84-7.248-3.67-10.875-5.5l-3.129-1.59-2.988-1.504-2.761-1.396c-2.14-1.147-2.14-1.147-4.247-1.01v-2c6.766 2.545 13.149 5.529 19.531 8.926L299 344l2-1a1335.152 1335.152 0 0 0-15.117-18.652C284 322 284 322 282 319c3.867 1.29 5.918 2.622 8.445 5.809l1.825 2.263 1.855 2.365c1.23 1.542 2.462 3.082 3.695 4.622.54.683 1.078 1.367 1.634 2.072A58.38 58.38 0 0 0 304 341c-1.688-9.514-4.351-18.719-7-28h4l.805 3.473 1.07 4.59.527 2.279A247.025 247.025 0 0 0 307 337h1c1.274-21.72 1.274-21.72-7-41-2.915-1.776-5.952-2.822-9.188-3.875l-2.462-.89c-10.49-3.639-18.181-4.387-27.6 1.952Zm368.688 62c-6.808 7.854-8.824 17.141-8.711 27.246C623.005 399.11 632.81 413.223 644 425l3 2a1240.631 1240.631 0 0 0-8.092-31.196c-.608-2.226-1.212-4.452-1.816-6.679a12607.018 12607.018 0 0 0-2.216-8.123c-.747-2.894-.747-2.894-1.876-5.002l4 1 14 51c1.748-2.623 2.501-4.242 3.357-7.18l.749-2.538.792-2.727 1.704-5.7c.891-2.998 1.778-5.997 2.652-9 .845-2.897 1.712-5.786 2.582-8.675l.78-2.74.768-2.519.655-2.226C666 383 666 383 668.1 382.255L670 382l-1.285 3.785c-3.345 9.908-6.585 19.843-9.653 29.84l-.927 2.996-.85 2.793-.754 2.467c-.653 2.24-.653 2.24-.531 5.119 2.713-1.283 5.08-2.69 7.469-4.504l1.964-1.484 2.067-1.575c.705-.53 1.41-1.06 2.135-1.608a636.54 636.54 0 0 0 9.978-7.657l1.649-1.28a686.382 686.382 0 0 0 4.383-3.443L688 406l3 1-3.008 2.238A1136.274 1136.274 0 0 0 661 430c3.776 1.259 5.296.55 9.082-.59l3.733-1.116 3.997-1.231 2.035-.62c27.776-7.304 27.776-7.304 52.153-21.443v-3a76.65 76.65 0 0 0-6.625-4.563l-1.871-1.208c-4.615-2.91-8.953-5.437-14.567-4.979A49.733 49.733 0 0 0 701 394l.586-1.723c4.216-11.633 4.216-11.633 3.848-23.812-2.057-3.536-4.892-4.179-8.621-5.277l-1.963-.655c-5.355-1.685-10.448-2.63-15.725-.22-2.395 1.586-2.395 1.586-3.125 4.687-1.871-.258-1.871-.258-4-1-1.16-1.742-1.16-1.742-2.063-3.875-1.274-2.965-2.391-5.086-4.937-7.125-3.072-1.148-5.818-1.072-9.063-.813l-2.597.168c-2.461.475-2.461.475-4.168 2.43-1.353 2.558-1.374 3.658-.86 6.465L649 367h-4l-.363-1.773c-1.4-4.892-4.237-8.44-8.637-10.914-3.012-.573-3.012-.573-5.563.875ZM573 418l1 2Zm-257 1c.44 9.078 3.451 17.451 10 24 6.414 5.345 12.873 7.432 21 9 .795-8.949-2.686-17.379-8.3-24.281-5.508-5.57-12.295-8.559-20.137-8.844L316 419Zm256 1-1.358 1.45c-2.067 2.205-4.136 4.409-6.205 6.613l-2.134 2.279c-6.045 6.434-12.12 12.693-18.815 18.451-3.334 2.957-6.559 6.024-9.8 9.082-5.194 4.886-10.495 9.526-16.07 13.977-3.795 3.114-7.365 6.458-10.962 9.796-2.5 2.214-5.072 4.156-7.781 6.102-3.083 2.314-3.756 2.865-4.938 6.688L494 497c31.519-9.339 60.364-39.274 75.625-67.125l1.077-1.939c.849-1.604 1.583-3.268 2.298-4.936l-1-3Zm-1 10-.996 1.984C553.452 463.743 524.346 484.434 493 500v5c25.202-3.556 46.2-13.186 61.996-33.96C562.637 459.45 569.18 446.677 572 433l-1-3Zm-323 71c8.28 27.182 29.552 52.751 49 73l1.473 1.54c26.375 27.405 59.364 45.651 94.84 58.585C434.483 649.148 434.483 649.148 447 663l2-1c-8.247-10.561-17.116-20.202-26.563-29.688l-2.434-2.448c-4.275-4.264-8.627-8.366-13.205-12.302-2.548-2.214-4.976-4.55-7.423-6.875-10.922-10.1-23.078-17.381-36.104-24.446C350.57 579.301 338.687 571.526 327 563l-4.73-3.418a568.134 568.134 0 0 1-28.542-22.154c-2.46-2.033-4.939-4.041-7.416-6.053-4.53-3.708-8.998-7.485-13.46-11.274A891.486 891.486 0 0 0 257 507l-2.668-2.176c-2.062-1.613-3.95-2.765-6.332-3.824Zm495.875 12.875c-5.19 8.65-5.363 18.863-5.25 28.688l.018 3.752c.177 12.994 1.602 25.82 3.357 38.685h1c1.949-15.637 3.462-31.318 5-47l3-1-.367 3.804c-.452 4.691-.898 9.382-1.342 14.073-.192 2.024-.386 4.049-.582 6.072-.282 2.922-.559 5.844-.834 8.766l-.265 2.71c-.517 5.551-.69 10.999-.61 16.575 3.56-3.273 6.155-6.997 8.813-11 5.19-7.7 10.708-15.128 16.323-22.523l1.872-2.47 1.676-2.198c1.368-1.777 1.368-1.777 2.316-3.809 2.063-.625 2.063-.625 4-1-4.11 7.016-8.774 13.384-13.813 19.75-4.534 5.739-8.894 11.527-12.937 17.625l-1.23 1.854c-1.857 2.847-3.59 5.685-5.02 8.771 2.82-1.32 5.187-2.797 7.625-4.73l2.112-1.664 2.263-1.793c1.61-1.26 3.22-2.52 4.832-3.778l2.55-1.992a1709.48 1709.48 0 0 1 13.306-10.293l2.498-1.95c4.54-3.45 8.196-5.687 13.814-6.8v2l-1.988.61c-4.227 1.95-7.576 4.745-11.2 7.64l-4.816 3.797-2.493 1.974c-4.025 3.182-8.077 6.33-12.128 9.479l-2.184 1.704a506.653 506.653 0 0 1-12.735 9.614L749 599v1c20.888.639 41.06-12.287 56.578-25.086 2.356-1.862 4.766-3.489 7.297-5.101 4.45-2.894 7.414-5.68 9.125-10.813.703-8.853-1.492-16.503-5.813-24.25-2.16-2.006-2.16-2.006-5.437-2.375-4.203.7-6.547 2.079-9.953 4.531C799 538 799 538 796 538l.508-2.379c1.67-8.44 1.67-8.44-.508-16.621-2.79-3.922-5.448-7.224-10-9-4.214.615-5.794 1.785-8.75 4.875-3.43 4.635-3.43 4.635-4.25 10.125l-3-1c-.738-1.926-.738-1.926-1.313-4.313-1.061-3.406-1.612-4.613-4.25-7.187-7.154-3.122-14.438-4.028-20.562 1.375ZM268 512c2.628 3.47 5.28 6.236 8.688 8.938l2.925 2.343 1.624 1.297c2.671 2.155 5.307 4.352 7.948 6.544 7.263 6.022 14.592 11.92 22.126 17.602 1.833 1.385 3.66 2.778 5.486 4.17 17.39 13.213 35.323 25.64 54.828 35.543 12.552 6.444 23.33 15.219 33.531 24.895a239.827 239.827 0 0 0 6.707 6.05c10.695 9.313 20.844 19.087 30.367 29.595 2.507 2.765 5.11 5.406 7.77 8.023-1.871-6.755-4.15-13.126-7.063-19.5l-1.188-2.607c-17.224-37.179-45.014-76.257-84.553-91.094-6.391-2.324-12.87-4.394-19.339-6.493-14.772-4.805-29.423-9.848-43.92-15.431l-2.126-.817c-6.804-2.622-13.57-5.287-20.172-8.39-1.653-.794-1.653-.794-3.639-.668Zm310 20c1.994 5.641 5.16 8.471 10.438 11.313 10.477 2.81 21.463-2.318 30.562-7.313v-1c-20.498-1.528-20.498-1.528-41-3Zm17 87c1.465 7.701 3.95 14.965 6.51 22.356 5.075 14.705 9.212 29.427 12.49 44.644.383 1.73.767 3.459 1.152 5.188L616 695c2.018-3.778 2.825-7.5 3.563-11.688l.391-2.176c2.802-15.856 4.268-33.55-3.954-48.136-4.798-6.667-9.908-11.823-18-14h-3Zm-1 7c-.984 22.67 5.616 43.922 13.188 65.063l1.008 2.83.972 2.642.852 2.325c1.063 2.32 2.383 4.156 3.98 6.14 1.938-26.485-10.203-54.576-19-79h-1Zm172 66c1.771-.29 3.542-.583 5.313-.875l2.988-.492c4.906-.84 9.802-1.743 14.699-2.633l-25 6v1c17.969 3.93 38.785 4.9 55-4.75 5.08-3.689 8.175-8.203 9.813-14.25l.187-2c-17.654-14.791-49.66 3.877-63 18Zm-451.918 68.027c-2.544 3.246-4.275 5.89-5.082 9.973-4.75-.594-8.617-1.977-13-3.875-9.3-3.868-18.886-7.288-29-5.125-2.972 2.972-3.2 5.777-3.313 9.813.19 6.071 1.209 11.866 4.313 17.187-4.278-.98-7.376-2.126-11-4.625-3.807-2.474-6.399-3.243-11-2.375-4.487 3.34-7.408 7.672-9 13-.382 2.712-.684 5.339-.875 8.063l-.15 2.038c-.221 4.772.528 8.437 2.025 12.899l-1.906.297c-9.19 1.605-15.74 4.159-21.735 11.555-2.284 3.61-2.567 5.852-2.359 10.148 2.514 5.684 6.483 7.72 12 10 4.352 1.459 8.756 2.68 13.188 3.875l3.822 1.042c22.246 5.977 45.236 11.569 68.365 11.208l3.422-.027c2.734-.024 5.469-.056 8.203-.098v-2c-28.98-12.547-28.98-12.547-58-25 7.422 2.294 14.484 5.266 21.59 8.384 1.998.877 4 1.749 6.001 2.618 5.623 2.447 11.239 4.909 16.823 7.443l2.252 1.015c1.869.846 3.733 1.704 5.596 2.563 2.775 1.307 2.775 1.307 5.738-.023l-2.457-3.008c-7.278-8.923-14.476-17.9-21.543-26.992l-1.43-1.836c-1.4-1.803-2.798-3.608-4.195-5.414l-1.292-1.665c-2.966-3.851-2.966-3.851-4.083-6.085 4.054 3.897 7.606 8.055 11.125 12.438l1.716 2.123a1377.727 1377.727 0 0 1 12.253 15.469C317.4 853.136 317.4 853.136 324 861h1v-57h2v51c2.124-3.185 3.224-6.287 4.39-9.887l.683-2.077c.733-2.239 1.456-4.48 2.177-6.723l.748-2.32C348.832 795.058 348.832 795.058 347 755c-1.635-3.497-1.635-3.497-4-6-10.2-1.013-21.937 3.648-28.918 11.027ZM581 959l-1.88 1.58a658.784 658.784 0 0 0-20.69 18.205 288.039 288.039 0 0 1-6.18 5.465 440.748 440.748 0 0 0-25.361 23.894c-1.802 1.77-3.659 3.414-5.58 5.051-4.472 3.887-8.646 8.03-12.809 12.242l-2.203 2.217c-1.768 1.78-3.534 3.562-5.297 5.346 3.447 1.15 3.846.913 7-.52l2.409-1.083 2.591-1.21 2.695-1.24C553.93 1011.138 589.764 986.249 615 952l1.36-1.83c9.116-10.72 9.116-10.72 13.64-23.17-16.234 0-37.373 22.224-49 32Zm46-22-1.18 1.95c-7.715 12.46-16.695 23.492-26.82 34.05l-1.527 1.61c-7.907 8.299-16.239 15.605-25.473 22.39l-2.033 1.497c-9.663 7.066-19.527 13.64-29.967 19.503l-2.146 1.21c-10.343 5.774-20.857 10.65-31.909 14.923l-2.703 1.054-2.41.918c-2.015.755-2.015.755-2.832 2.895 2.54.649 5.083 1.294 7.625 1.938l2.16.552c20.038 5.056 40.475 3.493 58.809-6.388 31.88-19.051 48.496-54.055 59.468-88.165l.656-2.001c.994-3.235 1.38-4.64.282-7.936Zm-372 14v2c30.777 11.358 61.652 21.218 94 27l3.617.648c4.78.497 9.52.457 14.32.414l2.94-.013c2.374-.012 4.749-.028 7.123-.049v-2c-59.421-25.507-59.421-25.507-122-28Zm5 7c3.545 4.568 7.18 7.962 11.875 11.313l1.982 1.428c23.495 16.694 52.15 31.072 81.78 26.486 9.645-1.655 18.61-4.85 27.363-9.227l-1-5c-3.132-1.044-5.116-1.06-8.39-.957-34.624.778-66.613-9.015-99.07-20.182l-2.265-.775c-1.406-.483-2.81-.97-4.212-1.46C265.23 958.651 263.02 958 260 958Z" fill="#D69B43"/></svg>