<svg width="172" height="172" fill="none" xmlns="http://www.w3.org/2000/svg"><g fill="#6B876D"><path d="M83.125 2.697c0 .372.08.688.24.948.174.248.388.459.642.633.267.173.554.328.862.464.32.124.628.248.922.372a32.7 32.7 0 0 1 1.503.707c.508.248.962.54 1.363.874.4.323.722.713.962 1.172.254.446.381.992.381 1.637 0 .644-.147 1.19-.441 1.636-.28.434-.655.794-1.123 1.079a5.039 5.039 0 0 1-1.543.595A8.15 8.15 0 0 1 85.17 13c-.374 0-.795-.056-1.263-.167a4.72 4.72 0 0 1-1.282-.465l-.2-.075a.535.535 0 0 0-.521.074c-.108.075-.201.205-.282.391a.302.302 0 0 1-.16.149.434.434 0 0 1-.22.019.309.309 0 0 1-.18-.056.172.172 0 0 1-.061-.13c.04-.273.073-.565.1-.874.04-.323.06-.645.06-.968 0-.322-.013-.644-.04-.967a9.073 9.073 0 0 0-.1-1.004c-.013-.074.013-.136.08-.186a.362.362 0 0 1 .22-.074c.08-.013.154 0 .221.037.08.025.127.074.14.149.08.508.228.973.442 1.395.213.409.48.762.801 1.06.321.285.682.508 1.083.67a3.67 3.67 0 0 0 1.343.24c.36 0 .701-.043 1.022-.13.334-.098.628-.235.882-.408.254-.186.454-.41.601-.67.147-.26.22-.564.22-.911a2.13 2.13 0 0 0-.32-1.172c-.2-.335-.454-.62-.762-.855a4.91 4.91 0 0 0-1.022-.633 27.816 27.816 0 0 0-1.062-.502 61.123 61.123 0 0 1-1.323-.576 5.679 5.679 0 0 1-1.183-.707 3.479 3.479 0 0 1-.842-1.005c-.214-.396-.32-.886-.32-1.469 0-.595.127-1.09.38-1.488a3.06 3.06 0 0 1 1.043-.985 4.808 4.808 0 0 1 1.463-.54A8.518 8.518 0 0 1 85.83 0c.374 0 .688.025.942.074.267.038.561.106.882.205.174.05.314.093.42.13.121.025.235.037.341.037.16 0 .274-.062.341-.186.027-.05.074-.08.14-.093a.46.46 0 0 1 .221-.018c.067 0 .127.012.18.037.054.025.074.062.06.112a3.981 3.981 0 0 0-.14.67c-.013.222-.02.458-.02.706 0 .322.02.614.06.874.04.26.074.57.1.93 0 .037-.026.074-.08.111a.755.755 0 0 1-.2.056.572.572 0 0 1-.2-.037c-.067-.025-.107-.068-.12-.13a7.527 7.527 0 0 0-.442-1.34c-.16-.359-.36-.638-.601-.836a2.028 2.028 0 0 0-.882-.41 5.722 5.722 0 0 0-1.223-.11c-.334 0-.654.043-.962.13a2.32 2.32 0 0 0-.782.353 1.773 1.773 0 0 0-.54.613 1.63 1.63 0 0 0-.201.819ZM96.744 9.098c-.168-.03-.294-.02-.377.027a.642.642 0 0 0-.247.236l-1.19 1.991c-.093.17-.148.304-.165.4a.713.713 0 0 0 .039.417.958.958 0 0 0 .284.293c.122.084.264.159.427.225.162.066.333.12.512.164a.19.19 0 0 1 .161.14.385.385 0 0 1 .02.21.385.385 0 0 1-.09.189.19.19 0 0 1-.2.076 8.018 8.018 0 0 1-.982-.247 8.47 8.47 0 0 0-1.055-.26 5.581 5.581 0 0 0-.917-.088 5.814 5.814 0 0 1-.954-.094c-.06-.01-.109-.05-.146-.119a.573.573 0 0 1-.038-.211.542.542 0 0 1 .072-.193.229.229 0 0 1 .203-.095l.278.012c.187-.004.357-.018.51-.04a1.2 1.2 0 0 0 .464-.199 2.26 2.26 0 0 0 .463-.403c.157-.184.323-.422.5-.714l5.903-9.573c.053-.09.158-.121.315-.094.169.03.293.102.372.215.166.825.34 1.708.522 2.648.195.942.392 1.903.592 2.884l.607 2.905c.204.956.399 1.86.585 2.714.083.375.174.671.272.888.111.218.224.387.34.507.127.122.26.214.399.276.138.061.289.125.451.191.07.025.111.076.122.152a.389.389 0 0 1-.07.398c-.035.056-.082.08-.142.068a8.597 8.597 0 0 1-1.109-.27 8.95 8.95 0 0 0-1.181-.283 13.56 13.56 0 0 0-1.442-.18 12.16 12.16 0 0 1-1.298-.153.23.23 0 0 1-.18-.144.421.421 0 0 1-.015-.227.298.298 0 0 1 .086-.171c.047-.054.113-.08.2-.077.418.024.733.005.943-.057.21-.063.341-.245.394-.546.015-.085.02-.183.015-.296a2.242 2.242 0 0 0-.032-.453c-.026-.204-.068-.46-.126-.769-.055-.32-.133-.726-.233-1.216-.032-.167-.1-.279-.202-.334-.088-.065-.247-.118-.476-.159l-3.184-.561Zm3.236-.157c.169.03.288.026.357-.012.071-.05.089-.152.054-.307l-.827-4.51c-.014-.065-.057-.104-.13-.117-.072-.013-.125.009-.16.065l-2.392 3.943c-.089.146-.113.248-.073.304.04.057.126.097.259.12l2.912.514ZM110.272 17.034a321.347 321.347 0 0 1-.26-5.354c-.06-1.768-.084-3.53-.071-5.284.01-.349.002-.651-.022-.907a1.816 1.816 0 0 0-.185-.674 1.782 1.782 0 0 0-.437-.57 3.945 3.945 0 0 0-.823-.534.227.227 0 0 1-.117-.16.383.383 0 0 1 .017-.208.388.388 0 0 1 .121-.171.18.18 0 0 1 .187-.03c.437.159.857.331 1.258.517.402.185.804.35 1.207.497.426.155.875.3 1.348.432.473.133.917.275 1.331.426.092.034.145.085.158.156a.275.275 0 0 1-.023.226.315.315 0 0 1-.138.164c-.056.045-.124.053-.204.024a7.116 7.116 0 0 0-.473-.153 1.278 1.278 0 0 0-.439-.081.807.807 0 0 0-.369.1c-.114.063-.205.186-.272.37-.117.323-.178 1.206-.183 2.651-.004 1.445.042 3.52.138 6.228.002.066.032.109.09.13.069.025.125.013.169-.036l2.71-3.04c.16-.19.373-.452.637-.785.277-.33.554-.679.831-1.047.277-.368.529-.72.755-1.054.23-.347.381-.618.452-.813.076-.207.106-.379.09-.515a.525.525 0 0 0-.124-.358.84.84 0 0 0-.325-.235 7.298 7.298 0 0 0-.511-.206.244.244 0 0 1-.159-.156.383.383 0 0 1 .018-.208.414.414 0 0 1 .127-.189.18.18 0 0 1 .187-.03c.368.135.713.28 1.034.436.321.156.648.294.982.416.322.117.634.21.934.281.312.074.646.177 1.003.306.057.021.093.067.106.137a.29.29 0 0 1-.034.202.32.32 0 0 1-.138.165c-.056.045-.132.057-.228.035-.381-.1-.714-.117-.998-.05-.273.07-.527.192-.76.368a4.962 4.962 0 0 0-.656.621c-.208.25-.432.507-.672.772l-5.333 6.113-1.194 1.345a.347.347 0 0 1-.218.116.341.341 0 0 1-.232-.007.418.418 0 0 1-.199-.15.347.347 0 0 1-.093-.23ZM131.833 13.714a.994.994 0 0 1 .22.17c.073.07.055.173-.051.309-.089.104-.176.23-.262.38l-.257.445a20 20 0 0 0-.724 1.364c-.024.042-.072.064-.144.065a.647.647 0 0 1-.186-.044.68.68 0 0 1-.173-.142c-.041-.052-.048-.113-.022-.183a9.34 9.34 0 0 0 .338-1.098c.06-.277.055-.513-.015-.71-.054-.2-.189-.384-.404-.55a9.486 9.486 0 0 0-.854-.578l-.954-.551c-.276-.16-.502-.283-.678-.37a.787.787 0 0 0-.455-.093c-.132.008-.257.078-.374.208-.118.13-.253.328-.406.593l-1.608 2.784c-.085.148-.114.259-.086.332a.358.358 0 0 0 .132.14c.488.281.882.48 1.182.597.311.123.566.171.765.145a.902.902 0 0 0 .544-.28 4.85 4.85 0 0 0 .531-.627.226.226 0 0 1 .178-.088.387.387 0 0 1 .203.053.383.383 0 0 1 .147.15.18.18 0 0 1-.003.188c-.098.17-.192.32-.282.453l-.262.379a37.18 37.18 0 0 0-.27.395c-.09.132-.191.293-.301.484-.184.318-.336.62-.457.903-.116.273-.28.595-.495.966-.03.053-.081.08-.153.081a.543.543 0 0 1-.193-.069.958.958 0 0 1-.147-.149.226.226 0 0 1-.013-.198c.146-.326.247-.6.304-.821a.757.757 0 0 0-.038-.595c-.077-.186-.249-.377-.517-.574-.251-.202-.621-.444-1.109-.725a.294.294 0 0 0-.196-.029c-.071.002-.14.06-.208.177l-1.203 2.084a5.94 5.94 0 0 0-.441.912 2.328 2.328 0 0 0-.118.717c.01.204.056.393.139.568.089.165.217.323.383.476.13.117.279.239.447.364.185.121.378.24.58.356.254.147.499.274.734.381.235.108.423.174.564.199.255.048.481.073.679.074.208.007.405-.028.591-.105.185-.076.368-.197.548-.362.197-.17.408-.4.634-.694a.178.178 0 0 1 .185-.063.745.745 0 0 1 .225.087.42.42 0 0 1 .164.158c.045.069.047.126.006.173-.311.415-.6.806-.869 1.174-.263.358-.505.741-.728 1.15-.018.032-.067.068-.146.107-.073.028-.189-.004-.348-.095l-5.775-3.334a25.765 25.765 0 0 0-1.211-.657c-.395-.2-.751-.378-1.071-.534-.085-.049-.133-.112-.145-.19a.33.33 0 0 1 .012-.205.275.275 0 0 1 .158-.163c.079-.04.17-.037.271.008.273.115.515.198.726.25.217.04.414.04.592.002.184-.05.352-.144.503-.283.161-.133.319-.332.472-.597l3.536-6.125c.135-.233.256-.467.363-.702a3.24 3.24 0 0 0 .263-.676c.057-.221.067-.435.03-.64a.943.943 0 0 0-.28-.543 4.223 4.223 0 0 0-.32-.291 5.901 5.901 0 0 0-.338-.26.182.182 0 0 1-.098-.161.386.386 0 0 1 .054-.203.381.381 0 0 1 .148-.147.182.182 0 0 1 .19.003c.36.208.677.405.952.592.274.186.602.39.983.61l5.712 3.298ZM144.124 37.874c-.31.26-.542.479-.697.656-.145.17-.225.341-.24.514-.007.182.04.382.143.6.112.209.28.476.504.8a.22.22 0 0 1 .008.209.316.316 0 0 1-.31.26c-.071.01-.133-.016-.189-.082a13.183 13.183 0 0 1-.852-1.13 12.07 12.07 0 0 0-.794-1.061 14.997 14.997 0 0 0-.989-1.065c-.353-.343-.659-.67-.919-.98a.182.182 0 0 1-.036-.185.387.387 0 0 1 .12-.172.382.382 0 0 1 .19-.088.22.22 0 0 1 .205.044c.272.267.498.47.677.607.196.139.381.216.553.23a.863.863 0 0 0 .56-.133 4.91 4.91 0 0 0 .779-.558l6.248-5.242c.347-.292.488-.562.423-.811-.048-.248-.245-.578-.592-.99-.291-.348-.559-.61-.804-.788a1.498 1.498 0 0 0-.754-.327c-.25-.03-.531.006-.844.109a8.638 8.638 0 0 0-1.116.528.177.177 0 0 1-.195-.004.536.536 0 0 1-.158-.131.597.597 0 0 1-.062-.188c-.003-.061.014-.107.052-.139.378-.254.746-.53 1.102-.83.374-.297.719-.619 1.037-.965.103-.086.228-.08.376.02s.288.23.422.39l6.318 7.528c.149.178.252.34.309.483.075.146.06.262-.043.349-.128.075-.285.175-.47.297-.167.125-.349.27-.546.435-.197.165-.395.34-.593.522-.191.192-.372.376-.544.552-.038.032-.095.04-.172.024a.579.579 0 0 1-.186-.107.714.714 0 0 1-.114-.193c-.02-.063-.006-.122.042-.179.328-.37.57-.702.726-.992.165-.299.246-.583.244-.853a1.493 1.493 0 0 0-.191-.799 4.404 4.404 0 0 0-.588-.873c-.355-.422-.657-.687-.909-.796-.242-.117-.536-.03-.883.261l-6.248 5.243ZM156.266 48.213c.073.127.146.205.219.234.079.04.183.022.31-.052l2.164-1.249c.328-.19.597-.373.806-.55.215-.167.366-.346.453-.538.088-.191.11-.41.068-.654-.025-.24-.122-.53-.291-.871a.18.18 0 0 1-.003-.19.492.492 0 0 1 .163-.157.387.387 0 0 1 .203-.054.18.18 0 0 1 .162.098c.196.339.404.735.623 1.189.219.453.439.87.659 1.252.129.223.254.427.374.611l.363.555.362.554c.121.185.246.389.375.611.036.064.034.122-.007.173a.284.284 0 0 1-.156.133.492.492 0 0 1-.219.063c-.071-.001-.122-.029-.153-.082-.211-.316-.411-.554-.602-.712a1 1 0 0 0-.585-.278c-.199-.026-.424.012-.676.115a7.791 7.791 0 0 0-.918.466l-6.237 3.6c-.35.203-.613.383-.79.542a1.153 1.153 0 0 0-.333.49c-.039.177-.026.382.037.614.074.226.187.508.339.844a.226.226 0 0 1-.013.198.316.316 0 0 1-.35.202c-.071 0-.129-.038-.171-.113-.245-.424-.46-.844-.644-1.261-.178-.407-.377-.8-.598-1.183a14.65 14.65 0 0 0-.789-1.22c-.287-.4-.532-.774-.734-1.124a.18.18 0 0 1-.003-.19.385.385 0 0 1 .147-.148.387.387 0 0 1 .203-.053c.071 0 .131.03.178.088.222.31.409.548.561.715.17.17.338.279.505.323.184.05.381.035.59-.043a4.86 4.86 0 0 0 .864-.414l2.641-1.525c.276-.16.346-.355.212-.589l-2.747-4.757c-.134-.233-.308-.288-.52-.166l-2.736 1.58a4.87 4.87 0 0 0-.791.541 1.142 1.142 0 0 0-.332.49c-.039.177-.027.382.036.614.074.226.187.508.339.844a.226.226 0 0 1-.013.199.312.312 0 0 1-.35.202c-.071-.002-.128-.04-.171-.114a13.362 13.362 0 0 1-.644-1.261c-.178-.407-.377-.8-.597-1.182-.233-.404-.496-.81-.79-1.22-.287-.4-.532-.775-.734-1.125a.183.183 0 0 1-.003-.19.387.387 0 0 1 .148-.148.383.383 0 0 1 .202-.053c.072 0 .131.03.178.088.222.31.409.549.562.715.169.17.337.279.505.324.184.049.38.034.59-.044a4.86 4.86 0 0 0 .864-.414l6.236-3.6c.329-.19.598-.374.806-.551a1.47 1.47 0 0 0 .454-.537c.087-.192.11-.41.067-.655-.025-.24-.122-.53-.291-.871a.184.184 0 0 1-.003-.19.494.494 0 0 1 .164-.157.383.383 0 0 1 .202-.053.179.179 0 0 1 .162.097c.196.34.404.736.623 1.189.219.453.439.87.66 1.252.128.223.253.427.374.612l.362.554.363.554c.121.185.245.389.374.611.037.064.035.122-.006.174a.29.29 0 0 1-.157.133.484.484 0 0 1-.218.062c-.072-.001-.123-.028-.153-.081-.211-.317-.412-.554-.603-.713a1 1 0 0 0-.584-.278c-.199-.026-.425.012-.676.115a7.872 7.872 0 0 0-.919.467l-2.163 1.249c-.213.122-.251.3-.117.533l2.738 4.741ZM167.393 60.172a.97.97 0 0 1 .06.271c.011.1-.069.168-.238.204a2.578 2.578 0 0 0-.444.123l-.484.175a20.1 20.1 0 0 0-1.431.58c-.046.017-.097.003-.152-.042a.656.656 0 0 1-.115-.154.694.694 0 0 1-.041-.22c.002-.066.036-.117.101-.154.419-.243.741-.452.965-.624.224-.173.372-.357.444-.553.088-.188.103-.416.045-.681a9.458 9.458 0 0 0-.283-.992l-.377-1.036c-.109-.299-.202-.539-.281-.719a.781.781 0 0 0-.289-.364c-.106-.078-.247-.105-.42-.081a3.584 3.584 0 0 0-.692.193l-3.021 1.1c-.161.058-.255.125-.28.2a.36.36 0 0 0 .011.19c.193.53.367.936.522 1.218.159.294.323.495.493.603.185.115.384.16.596.135.217-.014.487-.06.81-.139a.226.226 0 0 1 .193.047.38.38 0 0 1 .121.171.382.382 0 0 1 .017.21.18.18 0 0 1-.124.142 6.935 6.935 0 0 1-.507.165 82.463 82.463 0 0 0-.905.251 7.481 7.481 0 0 0-.541.178 8.45 8.45 0 0 0-.931.397 8.981 8.981 0 0 1-1 .423c-.057.02-.114.008-.169-.037a.536.536 0 0 1-.104-.177 1.02 1.02 0 0 1-.017-.208.228.228 0 0 1 .118-.16c.321-.157.574-.301.761-.434a.758.758 0 0 0 .353-.48c.06-.192.051-.45-.027-.773-.063-.316-.191-.738-.384-1.268a.292.292 0 0 0-.131-.147c-.056-.045-.147-.044-.274.002l-2.261.823a6.013 6.013 0 0 0-.924.414c-.232.15-.416.308-.551.474-.123.163-.21.337-.259.525a1.87 1.87 0 0 0-.012.61c.024.174.06.363.108.567.064.211.136.426.216.645.1.276.206.53.317.764.111.233.212.405.304.515.165.2.322.365.473.492.155.14.328.24.52.3.191.06.409.086.652.075.26-.003.571-.045.933-.124a.177.177 0 0 1 .182.07c.048.061.087.132.116.212a.43.43 0 0 1 .024.226c-.01.082-.045.127-.107.137-.504.118-.978.232-1.42.34a9.927 9.927 0 0 0-1.297.414c-.034.012-.094.008-.18-.013-.074-.025-.143-.124-.206-.296l-2.28-6.266c-.16-.438-.328-.865-.506-1.282a84.827 84.827 0 0 0-.478-1.097c-.033-.092-.029-.172.011-.239a.334.334 0 0 1 .142-.149.275.275 0 0 1 .226-.024c.085.021.153.081.202.18a4.8 4.8 0 0 0 .396.658c.14.17.291.298.452.383.172.08.361.116.566.107.21.002.458-.05.746-.154l6.646-2.42c.253-.091.496-.193.73-.304.237-.1.449-.216.635-.349.186-.133.331-.29.435-.47a.948.948 0 0 0 .134-.597 3.93 3.93 0 0 0-.058-.428 5.91 5.91 0 0 0-.092-.416.178.178 0 0 1 .029-.187.385.385 0 0 1 .171-.12.387.387 0 0 1 .209-.018.18.18 0 0 1 .143.124c.142.391.259.746.349 1.065.09.32.21.686.361 1.1l2.255 6.198ZM167.992 81.115c.258 0 .51-.012.756-.038a2.86 2.86 0 0 0 .686-.115c.211-.065.393-.167.546-.308a1 1 0 0 0 .316-.539c.036-.14.065-.288.088-.442a6.37 6.37 0 0 0 .053-.442c0-.077.029-.135.088-.173a.346.346 0 0 1 .194-.058c.07 0 .134.02.193.058a.192.192 0 0 1 .088.173c0 .436-.012.827-.035 1.173-.024.346-.035.75-.035 1.211 0 .526.005 1.045.017 1.558.024.513.041 1.032.053 1.558 0 1.051-.152 2.019-.457 2.904-.305.897-.733 1.666-1.285 2.307a5.687 5.687 0 0 1-1.952 1.5 5.474 5.474 0 0 1-2.463.558c-.985 0-1.841-.173-2.568-.52a5.241 5.241 0 0 1-1.83-1.422c-.48-.603-.838-1.32-1.073-2.154a9.715 9.715 0 0 1-.351-2.673c0-.577.023-1.141.07-1.692.047-.539.07-1.026.07-1.462 0-.27-.006-.513-.017-.73a10.875 10.875 0 0 0-.071-1.27 31.18 31.18 0 0 1-.07-.692.201.201 0 0 1 .07-.193.518.518 0 0 1 .194-.077c.07-.012.141 0 .211.039.07.051.111.128.123.23a5.4 5.4 0 0 0 .141.79 1.6 1.6 0 0 0 .281.537 1 1 0 0 0 .458.308c.187.064.433.096.738.096h6.773Zm-5.559 2.097c-.586 0-1.055.025-1.407.076-.34.065-.598.18-.774.347-.176.166-.293.403-.352.711-.047.32-.07.744-.07 1.27 0 .576.111 1.102.334 1.576.223.488.545.904.967 1.25.434.347.962.616 1.584.808.621.192 1.337.288 2.146.288.856 0 1.612-.096 2.269-.288.668-.192 1.225-.506 1.671-.942.457-.436.798-1.02 1.02-1.75.235-.718.352-1.603.352-2.654 0-.257-.041-.436-.123-.539-.082-.102-.24-.153-.475-.153h-7.142ZM162.491 96.747c.03-.17.021-.295-.026-.378a.65.65 0 0 0-.237-.247l-1.991-1.19a1.452 1.452 0 0 0-.4-.164.711.711 0 0 0-.417.038.967.967 0 0 0-.293.284 2.291 2.291 0 0 0-.224.427 3.721 3.721 0 0 0-.165.512.19.19 0 0 1-.14.162.387.387 0 0 1-.209.019.38.38 0 0 1-.189-.09.19.19 0 0 1-.077-.2c.051-.289.134-.616.248-.982a8.41 8.41 0 0 0 .26-1.054c.056-.314.085-.62.087-.918.003-.298.034-.615.094-.953.011-.06.05-.11.119-.147a.573.573 0 0 1 .212-.037.538.538 0 0 1 .192.071.228.228 0 0 1 .095.203l-.011.278c.004.187.017.358.04.51.033.168.099.323.198.465.097.154.232.308.403.463.184.156.422.323.715.498l9.572 5.904c.09.053.122.158.094.315a.547.547 0 0 1-.215.373c-.825.165-1.707.339-2.647.521-.943.195-1.904.392-2.884.592l-2.905.607c-.957.205-1.861.4-2.715.585a4.572 4.572 0 0 0-.887.273c-.219.11-.388.223-.508.339a1.408 1.408 0 0 0-.275.399c-.062.139-.126.289-.192.451a.177.177 0 0 1-.152.123.395.395 0 0 1-.398-.07c-.056-.035-.079-.083-.068-.143.068-.386.158-.756.27-1.109a8.98 8.98 0 0 0 .283-1.181c.089-.507.149-.987.18-1.442.03-.455.081-.887.154-1.297a.23.23 0 0 1 .143-.18.423.423 0 0 1 .227-.016.298.298 0 0 1 .171.086c.054.047.08.114.077.2-.024.419-.005.733.058.943.062.21.244.342.546.395.084.015.183.02.295.015.111.007.262-.004.454-.032.203-.027.459-.069.768-.126.321-.056.726-.133 1.216-.233.168-.033.279-.1.334-.203.066-.088.118-.246.159-.475l.561-3.184Zm.157 3.236c-.03.169-.026.287.012.356.05.071.152.089.307.055l4.511-.828c.065-.013.103-.056.116-.129.013-.072-.009-.126-.065-.16l-3.943-2.393c-.146-.088-.247-.112-.304-.072-.057.04-.097.126-.12.258l-.514 2.913ZM156.46 112.349a6.362 6.362 0 0 0-.917-.275c-.22-.041-.408-.025-.565.048-.161.085-.31.226-.447.424-.126.202-.273.48-.442.836a.219.219 0 0 1-.177.112.317.317 0 0 1-.38-.139c-.045-.055-.053-.123-.023-.204.167-.46.352-.895.553-1.304.196-.397.37-.803.521-1.218.159-.437.302-.9.427-1.388.122-.477.252-.906.39-1.286a.181.181 0 0 1 .143-.124.39.39 0 0 1 .208.018c.07.025.127.065.172.121a.221.221 0 0 1 .064.199 7.59 7.59 0 0 0-.187.89c-.022.239.003.438.077.595a.86.86 0 0 0 .395.417c.202.126.493.258.872.396l7.665 2.79c.426.155.73.142.913-.039.191-.166.378-.502.562-1.008.155-.426.249-.789.28-1.091a1.49 1.49 0 0 0-.094-.816c-.098-.231-.27-.456-.516-.676a8.44 8.44 0 0 0-1.015-.702.177.177 0 0 1-.094-.171.545.545 0 0 1 .034-.203.603.603 0 0 1 .132-.147c.051-.034.1-.042.146-.025.409.201.832.381 1.27.54a9.06 9.06 0 0 0 1.354.415c.126.046.183.158.171.336a2.093 2.093 0 0 1-.126.56l-3.361 9.235c-.08.219-.168.389-.264.51-.089.137-.197.183-.323.137-.13-.074-.294-.159-.493-.258a11.56 11.56 0 0 0-.65-.256 17.677 17.677 0 0 0-.748-.253l-.75-.195c-.046-.016-.082-.062-.107-.136a.555.555 0 0 1 0-.215.702.702 0 0 1 .11-.195c.044-.049.102-.067.176-.053.485.098.893.142 1.222.132.341-.006.628-.078.86-.215.24-.121.439-.309.597-.565.17-.251.323-.566.462-.946.188-.518.267-.913.235-1.185-.019-.268-.242-.479-.668-.634l-7.664-2.789ZM157.875 131.832a1.004 1.004 0 0 1-.17.221c-.07.072-.173.055-.31-.052a2.447 2.447 0 0 0-.379-.261l-.445-.258a20.595 20.595 0 0 0-1.364-.723c-.043-.025-.065-.073-.066-.144a.684.684 0 0 1 .044-.187.682.682 0 0 1 .142-.172c.052-.041.113-.049.183-.022.456.164.823.277 1.099.337.276.061.512.056.709-.015.2-.054.384-.188.55-.403.161-.204.354-.489.578-.854l.552-.955c.159-.275.282-.501.369-.677a.783.783 0 0 0 .094-.455c-.009-.133-.078-.257-.208-.375a3.574 3.574 0 0 0-.593-.406l-2.784-1.607c-.149-.086-.26-.115-.333-.086a.353.353 0 0 0-.139.131c-.282.488-.481.882-.598 1.183-.123.31-.171.565-.145.765a.9.9 0 0 0 .281.543c.149.157.358.334.626.532a.223.223 0 0 1 .088.178.382.382 0 0 1-.053.202.385.385 0 0 1-.149.148.183.183 0 0 1-.189-.003 7.066 7.066 0 0 1-.452-.283 55.235 55.235 0 0 0-.38-.261 44.235 44.235 0 0 0-.395-.271 7.628 7.628 0 0 0-.484-.3 8.45 8.45 0 0 0-.902-.458 8.949 8.949 0 0 1-.966-.494c-.054-.031-.081-.082-.082-.153a.561.561 0 0 1 .069-.193.99.99 0 0 1 .149-.148.226.226 0 0 1 .198-.013c.326.146.6.248.822.305a.75.75 0 0 0 .594-.039c.186-.076.378-.249.575-.517.201-.251.443-.62.725-1.108a.298.298 0 0 0 .028-.196c-.001-.072-.06-.141-.177-.208l-2.084-1.203a5.912 5.912 0 0 0-.912-.442 2.295 2.295 0 0 0-.717-.117 1.48 1.48 0 0 0-.568.139 1.826 1.826 0 0 0-.476.383c-.117.13-.239.279-.364.447-.121.185-.239.378-.356.579a8.68 8.68 0 0 0-.381.735 2.526 2.526 0 0 0-.199.564 3.815 3.815 0 0 0-.073.678c-.007.208.028.405.104.591.077.186.198.368.362.548.17.197.401.409.695.635a.179.179 0 0 1 .063.185.778.778 0 0 1-.088.225.42.42 0 0 1-.158.163c-.068.045-.126.047-.173.006-.415-.31-.806-.6-1.174-.869a9.892 9.892 0 0 0-1.15-.727c-.032-.018-.067-.067-.106-.146-.029-.073.003-.189.095-.349l3.334-5.774c.233-.404.452-.807.657-1.212.199-.394.377-.751.533-1.071.049-.085.113-.133.19-.145a.33.33 0 0 1 .205.012c.08.033.135.085.163.158.04.08.037.17-.008.272a4.79 4.79 0 0 0-.249.725c-.04.217-.041.415-.003.593.05.184.144.351.283.502.133.162.332.319.597.472l6.125 3.536c.233.135.468.256.703.364.228.118.454.205.675.262.222.058.435.068.64.031a.946.946 0 0 0 .544-.281 4.14 4.14 0 0 0 .291-.32c.094-.115.181-.227.259-.338a.177.177 0 0 1 .162-.097.392.392 0 0 1 .35.202.183.183 0 0 1-.003.189c-.209.361-.406.678-.592.952-.187.274-.39.602-.611.984l-3.297 5.711ZM124.499 152.734c.212-.122.443-.199.694-.231a1.94 1.94 0 0 1 .711.057c.234.062.457.167.669.313.201.153.366.34.494.563.129.223.206.454.231.694.021.257-.003.497-.072.72-.062.235-.17.452-.323.654a2.009 2.009 0 0 1-.578.503 1.733 1.733 0 0 1-.694.231 1.863 1.863 0 0 1-.727-.047 1.67 1.67 0 0 1-.644-.307 1.75 1.75 0 0 1-.486-.547 1.7 1.7 0 0 1-.224-.719 1.884 1.884 0 0 1 .047-.727 1.914 1.914 0 0 1 .902-1.157ZM88.111 168.511c0-.344-.07-.635-.214-.876a2.252 2.252 0 0 0-.57-.583 5.375 5.375 0 0 0-.766-.43 28.873 28.873 0 0 1-.82-.343 28.518 28.518 0 0 1-1.336-.652 5.944 5.944 0 0 1-1.211-.807 3.373 3.373 0 0 1-.856-1.082c-.225-.412-.338-.915-.338-1.511 0-.595.13-1.098.392-1.51.25-.401.582-.733.998-.996a4.364 4.364 0 0 1 1.372-.549 6.956 6.956 0 0 1 1.532-.172c.333 0 .707.052 1.123.155.415.091.795.234 1.14.429l.178.068a.456.456 0 0 0 .196.035.47.47 0 0 0 .267-.103c.095-.069.178-.189.25-.361a.275.275 0 0 1 .142-.137.366.366 0 0 1 .196-.017c.06 0 .113.017.16.051a.164.164 0 0 1 .054.12c-.036.252-.065.521-.09.807a7.513 7.513 0 0 0-.052.893c0 .297.011.595.035.893.012.297.042.606.09.927.011.068-.013.126-.072.171a.313.313 0 0 1-.196.069.293.293 0 0 1-.196-.034c-.071-.023-.113-.069-.125-.138a4.429 4.429 0 0 0-.392-1.287 3.58 3.58 0 0 0-.712-.979 3.267 3.267 0 0 0-.963-.618 3.152 3.152 0 0 0-1.193-.223c-.321 0-.624.04-.91.12a2.754 2.754 0 0 0-.783.378 1.933 1.933 0 0 0-.535.618c-.13.24-.196.521-.196.841 0 .412.096.773.286 1.082.178.309.403.572.677.789.273.229.576.424.908.584.333.172.648.326.945.464.392.171.784.349 1.176.532.392.183.742.4 1.05.652.31.263.56.572.75.927.19.366.284.818.284 1.356 0 .55-.113 1.008-.338 1.374a2.775 2.775 0 0 1-.927.91c-.38.229-.814.394-1.3.497a7.3 7.3 0 0 1-1.515.155c-.333 0-.612-.023-.837-.069a4.784 4.784 0 0 1-.784-.189 5.892 5.892 0 0 1-.374-.12 1.44 1.44 0 0 0-.303-.034c-.143 0-.244.057-.303.172a.167.167 0 0 1-.125.085.399.399 0 0 1-.196.018.364.364 0 0 1-.16-.035c-.048-.023-.066-.057-.054-.103.06-.206.101-.412.125-.618.012-.206.018-.423.018-.652 0-.298-.018-.567-.054-.807-.035-.24-.065-.526-.089-.858 0-.035.024-.069.071-.103a.666.666 0 0 1 .179-.052c.059 0 .118.012.178.035.06.022.095.062.107.12.118.503.25.915.392 1.236.142.332.32.589.534.772.214.183.475.309.784.378.297.069.66.103 1.087.103.297 0 .582-.04.855-.12.262-.069.493-.178.695-.326.202-.149.362-.338.481-.567.119-.217.178-.469.178-.755ZM74.846 162.492c.168.03.294.021.377-.027.081-.035.163-.114.247-.236l1.19-1.991c.093-.171.147-.304.164-.4a.715.715 0 0 0-.038-.418.965.965 0 0 0-.284-.292 2.232 2.232 0 0 0-.427-.225 3.716 3.716 0 0 0-.512-.165.188.188 0 0 1-.162-.14.388.388 0 0 1-.019-.209.386.386 0 0 1 .09-.189.19.19 0 0 1 .2-.077c.29.051.617.134.982.248.365.114.717.201 1.055.261.313.055.619.084.917.087a5.9 5.9 0 0 1 .953.093c.06.011.11.051.147.12a.566.566 0 0 1 .037.211.536.536 0 0 1-.07.193.228.228 0 0 1-.204.095l-.278-.012a4.035 4.035 0 0 0-.51.041 1.182 1.182 0 0 0-.464.198 2.24 2.24 0 0 0-.463.403 5.442 5.442 0 0 0-.5.714l-5.903 9.573c-.053.09-.158.121-.315.093a.544.544 0 0 1-.372-.214c-.166-.825-.34-1.708-.522-2.648-.195-.942-.392-1.903-.592-2.884l-.607-2.905c-.205-.956-.4-1.861-.585-2.714a4.618 4.618 0 0 0-.272-.888 2.106 2.106 0 0 0-.34-.507 1.425 1.425 0 0 0-.399-.276 14.004 14.004 0 0 0-.451-.191.178.178 0 0 1-.123-.152.388.388 0 0 1-.019-.209.381.381 0 0 1 .09-.189c.034-.057.082-.079.142-.069.386.068.756.159 1.11.271.34.109.734.204 1.18.282.507.09.987.15 1.442.18.455.031.887.082 1.297.154a.23.23 0 0 1 .18.144c.026.067.031.142.016.227a.298.298 0 0 1-.086.171c-.047.054-.113.079-.2.076-.418-.024-.733-.004-.943.058-.21.063-.341.245-.394.546-.015.084-.02.183-.015.296-.007.111.003.262.032.453.026.204.068.46.125.768.056.321.133.727.234 1.217.032.167.1.279.202.334.088.065.246.118.475.158l3.184.562Zm-3.237.157c-.168-.03-.287-.026-.356.011-.071.05-.089.153-.054.308l.827 4.511c.014.064.057.103.129.116.072.013.126-.009.16-.065l2.393-3.943c.088-.146.112-.248.073-.305-.04-.056-.126-.096-.259-.12l-2.913-.513ZM61.317 154.556c.102 1.797.189 3.581.26 5.354.06 1.768.084 3.53.071 5.284-.01.349-.002.651.022.907a1.831 1.831 0 0 0 .623 1.244c.196.175.47.353.822.533.065.037.104.09.118.161a.383.383 0 0 1-.018.208.387.387 0 0 1-.12.171.18.18 0 0 1-.187.03 16.03 16.03 0 0 1-1.259-.517 16.006 16.006 0 0 0-1.207-.498 18.907 18.907 0 0 0-1.348-.432 18.594 18.594 0 0 1-1.33-.425c-.093-.034-.145-.086-.159-.156a.276.276 0 0 1 .024-.226.312.312 0 0 1 .138-.164c.055-.045.123-.053.204-.024.15.055.307.105.472.152.15.055.296.082.44.082a.802.802 0 0 0 .368-.1c.114-.063.205-.186.272-.37.117-.323.178-1.206.183-2.651.005-1.445-.041-3.521-.138-6.228-.002-.066-.032-.109-.09-.13-.068-.025-.125-.013-.169.036l-2.71 3.041c-.16.189-.372.451-.637.784a26.071 26.071 0 0 0-1.586 2.101c-.23.347-.38.617-.452.813-.075.207-.105.379-.09.515 0 .143.042.263.124.358.071.091.18.169.325.235.145.066.316.135.512.206.08.029.133.081.158.155a.385.385 0 0 1-.017.209.418.418 0 0 1-.127.188.18.18 0 0 1-.187.03 10.875 10.875 0 0 1-1.034-.435 10.232 10.232 0 0 0-.983-.416 8.198 8.198 0 0 0-.933-.281 9.285 9.285 0 0 1-1.003-.307c-.058-.021-.093-.066-.107-.136a.29.29 0 0 1 .035-.203.312.312 0 0 1 .138-.164c.055-.045.131-.057.227-.035.381.1.714.117.999.051a2.13 2.13 0 0 0 .76-.369c.217-.168.436-.375.656-.621.208-.25.432-.508.671-.772l5.334-6.113 1.193-1.345a.353.353 0 0 1 .218-.116.344.344 0 0 1 .232.006c.08.03.147.08.2.151a.35.35 0 0 1 .092.229ZM39.756 157.874a.999.999 0 0 1-.22-.169c-.073-.071-.056-.174.051-.31.089-.104.176-.231.262-.379l.257-.446c.276-.477.517-.932.724-1.364.024-.042.072-.064.144-.065a.647.647 0 0 1 .186.044.697.697 0 0 1 .173.142c.04.052.048.113.022.182a9.341 9.341 0 0 0-.338 1.099c-.06.277-.055.513.015.709.054.201.188.384.403.551.205.16.49.353.854.578l.955.551c.276.159.502.283.677.37a.79.79 0 0 0 .456.093c.132-.008.257-.078.374-.208.118-.13.253-.328.406-.593l1.608-2.784c.085-.148.114-.259.085-.332a.354.354 0 0 0-.131-.14c-.488-.281-.882-.481-1.182-.597-.311-.123-.566-.171-.765-.145a.899.899 0 0 0-.544.28 4.88 4.88 0 0 0-.531.627.227.227 0 0 1-.178.088.386.386 0 0 1-.203-.054.382.382 0 0 1-.147-.148.18.18 0 0 1 .003-.189 7.03 7.03 0 0 1 .282-.453 57.706 57.706 0 0 0 .532-.774c.09-.132.19-.293.3-.484.184-.318.337-.619.458-.903.115-.273.28-.595.494-.966.031-.053.082-.08.153-.081.066.009.13.032.194.069a.954.954 0 0 1 .147.149.226.226 0 0 1 .013.198 5.44 5.44 0 0 0-.304.821.756.756 0 0 0 .038.595c.077.186.249.377.517.574.251.202.62.444 1.109.725a.29.29 0 0 0 .196.028c.07-.001.14-.06.208-.176l1.203-2.084c.196-.34.343-.644.441-.912.082-.264.121-.503.117-.717a1.48 1.48 0 0 0-.138-.568 1.84 1.84 0 0 0-.383-.476 5.966 5.966 0 0 0-.448-.364c-.184-.121-.377-.24-.579-.356a8.933 8.933 0 0 0-.734-.382 2.528 2.528 0 0 0-.564-.198 3.827 3.827 0 0 0-.68-.074 1.401 1.401 0 0 0-.59.105 1.87 1.87 0 0 0-.548.362 4.736 4.736 0 0 0-.634.694.175.175 0 0 1-.185.063.731.731 0 0 1-.225-.087.425.425 0 0 1-.164-.158c-.045-.069-.047-.127-.006-.173.31-.415.6-.807.869-1.175a9.92 9.92 0 0 0 .727-1.149c.019-.032.068-.068.147-.107.073-.028.189.003.348.095l5.775 3.334c.403.233.807.452 1.211.657.394.2.751.377 1.071.534.085.049.133.112.145.19a.328.328 0 0 1-.012.205.277.277 0 0 1-.158.163c-.08.039-.17.036-.271-.008a4.83 4.83 0 0 0-.726-.249 1.477 1.477 0 0 0-.592-.003 1.179 1.179 0 0 0-.503.283c-.162.132-.319.332-.472.597l-3.536 6.125a8.278 8.278 0 0 0-.363.702 3.252 3.252 0 0 0-.263.676 1.481 1.481 0 0 0-.03.64c.026.199.12.38.28.543.098.099.205.196.32.291.115.095.228.181.338.259a.18.18 0 0 1 .097.162.387.387 0 0 1-.053.203.383.383 0 0 1-.149.147.18.18 0 0 1-.189-.003c-.36-.208-.678-.405-.952-.592-.274-.186-.602-.39-.984-.61l-5.71-3.298ZM27.466 133.716c.31-.26.541-.479.696-.657a.916.916 0 0 0 .24-.513 1.292 1.292 0 0 0-.143-.599 8.661 8.661 0 0 0-.503-.801.219.219 0 0 1-.008-.209.315.315 0 0 1 .31-.26c.07-.011.133.016.188.082.315.375.599.752.853 1.131.246.369.51.722.794 1.06.299.357.628.711.989 1.065.352.343.658.67.918.98a.18.18 0 0 1 .036.185.381.381 0 0 1-.12.172.378.378 0 0 1-.19.088.22.22 0 0 1-.204-.044 7.986 7.986 0 0 0-.677-.607c-.197-.139-.381-.216-.554-.231a.861.861 0 0 0-.56.134c-.21.112-.469.298-.778.558l-6.248 5.242c-.348.292-.488.562-.423.811.048.247.245.578.591.99.291.348.56.61.805.788.236.186.487.295.753.327.25.03.531-.006.845-.109a8.676 8.676 0 0 0 1.115-.528.176.176 0 0 1 .195.004c.058.031.111.075.158.131a.58.58 0 0 1 .062.188c.003.061-.014.107-.051.139-.379.254-.746.53-1.103.829a9.09 9.09 0 0 0-1.036.966c-.103.086-.229.08-.377-.02-.147-.1-.288-.23-.422-.389L17.3 137.09a1.834 1.834 0 0 1-.31-.483c-.074-.146-.06-.262.044-.349.128-.075.284-.175.469-.298.167-.124.35-.269.546-.434.198-.166.395-.339.594-.522.19-.192.372-.376.544-.552.037-.032.094-.04.171-.024.068.023.13.059.186.107a.694.694 0 0 1 .114.193c.02.062.007.122-.042.179-.328.371-.57.702-.726.992-.165.299-.246.583-.244.853-.014.268.05.534.191.799.133.272.33.563.589.873.354.422.657.687.908.796.242.117.537.03.884-.262l6.248-5.242ZM15.323 123.377c-.073-.128-.146-.206-.22-.234-.079-.039-.182-.022-.31.051l-2.163 1.25a5.479 5.479 0 0 0-.806.55 1.47 1.47 0 0 0-.453.537 1.1 1.1 0 0 0-.068.655c.025.24.122.53.29.871a.18.18 0 0 1 .004.189.487.487 0 0 1-.163.158.376.376 0 0 1-.203.053.18.18 0 0 1-.162-.097 18.29 18.29 0 0 1-.623-1.189c-.22-.453-.439-.87-.66-1.252a12.977 12.977 0 0 0-.374-.612c-.127-.195-.247-.38-.362-.554-.12-.185-.242-.369-.363-.554-.12-.185-.245-.389-.374-.611-.036-.064-.034-.122.006-.174a.294.294 0 0 1 .157-.133.5.5 0 0 1 .218-.062c.072.001.123.028.154.081.21.317.411.554.602.713.18.165.375.257.585.278.199.026.424-.012.676-.115.251-.103.557-.258.918-.467l6.236-3.6c.35-.202.614-.383.79-.541.167-.153.278-.316.334-.489a1.295 1.295 0 0 0-.037-.615 8.677 8.677 0 0 0-.339-.844.228.228 0 0 1 .013-.199.316.316 0 0 1 .35-.202c.071.002.128.039.171.114.245.424.46.844.644 1.261.178.407.377.801.598 1.182.232.403.495.81.789 1.221.287.399.532.774.734 1.124a.18.18 0 0 1 .003.189.384.384 0 0 1-.147.149.375.375 0 0 1-.203.053.225.225 0 0 1-.178-.088 7.806 7.806 0 0 0-.561-.715c-.17-.171-.338-.279-.506-.324a.957.957 0 0 0-.59.044 4.874 4.874 0 0 0-.863.414l-2.641 1.525c-.276.159-.347.355-.212.589l2.747 4.756c.134.234.308.289.52.167l2.736-1.58c.35-.202.614-.383.79-.541.167-.153.278-.316.333-.49a1.296 1.296 0 0 0-.037-.615 8.674 8.674 0 0 0-.338-.843.228.228 0 0 1 .012-.199.314.314 0 0 1 .35-.202c.072.001.129.039.172.113.245.425.46.845.643 1.262.178.406.378.8.598 1.182.233.403.496.81.79 1.22.287.4.532.775.734 1.125a.18.18 0 0 1 .003.189.39.39 0 0 1-.35.202.224.224 0 0 1-.178-.088 7.821 7.821 0 0 0-.562-.715c-.17-.171-.338-.279-.505-.324a.95.95 0 0 0-.59.044 4.874 4.874 0 0 0-.864.414l-6.236 3.6c-.329.19-.598.374-.806.551a1.454 1.454 0 0 0-.454.537 1.1 1.1 0 0 0-.068.655c.026.239.123.53.291.871a.18.18 0 0 1 .004.189.488.488 0 0 1-.164.158.385.385 0 0 1-.202.053.18.18 0 0 1-.163-.097 18.554 18.554 0 0 1-.622-1.189c-.22-.453-.44-.871-.66-1.252a12.928 12.928 0 0 0-.374-.612l-.363-.554-.362-.554c-.12-.185-.245-.389-.374-.612-.037-.063-.035-.121.006-.173a.29.29 0 0 1 .157-.133.5.5 0 0 1 .218-.062c.072.001.123.028.153.081.211.317.412.554.603.713.18.165.374.257.584.278.2.026.425-.012.676-.115a7.92 7.92 0 0 0 .919-.467l2.163-1.249c.213-.122.251-.3.117-.534l-2.738-4.74ZM4.195 111.418a.995.995 0 0 1-.06-.271c-.01-.101.07-.169.24-.204.134-.023.282-.064.443-.123l.484-.176c.518-.188.995-.381 1.43-.579.047-.017.098-.003.153.042.04.038.078.089.115.154a.692.692 0 0 1 .04.22c-.002.066-.035.117-.1.153-.42.244-.741.453-.965.625-.224.173-.372.357-.444.553-.088.188-.103.415-.045.681.053.254.147.585.283.992l.377 1.036c.108.299.202.538.28.718.075.169.171.29.29.364.106.079.247.106.42.082.174-.024.405-.089.692-.193l3.021-1.1c.161-.058.254-.125.28-.199a.356.356 0 0 0-.012-.192c-.192-.529-.366-.935-.521-1.217-.16-.294-.323-.495-.493-.603a.901.901 0 0 0-.596-.135c-.217.014-.487.06-.81.139a.232.232 0 0 1-.193-.047.383.383 0 0 1-.121-.172.383.383 0 0 1-.017-.208.18.18 0 0 1 .123-.143c.185-.067.354-.122.507-.165a90.089 90.089 0 0 0 .906-.251c.154-.043.334-.103.541-.178.346-.126.656-.258.93-.397a9.023 9.023 0 0 1 1-.423c.058-.021.115-.009.17.036a.542.542 0 0 1 .104.178c.013.073.019.142.017.208a.225.225 0 0 1-.118.16 5.4 5.4 0 0 0-.76.434.755.755 0 0 0-.354.48c-.06.192-.051.449.027.772.063.316.19.739.383 1.268a.294.294 0 0 0 .132.148c.056.045.147.044.273-.002l2.262-.823c.368-.134.676-.272.924-.414a2.31 2.31 0 0 0 .55-.475c.124-.162.21-.336.26-.524a1.84 1.84 0 0 0 .012-.61 6.152 6.152 0 0 0-.108-.567 12.468 12.468 0 0 0-.216-.645 8.738 8.738 0 0 0-.317-.764 2.53 2.53 0 0 0-.305-.515 3.732 3.732 0 0 0-.472-.492 1.4 1.4 0 0 0-.52-.3 1.868 1.868 0 0 0-.653-.075c-.26.003-.57.044-.932.124a.176.176 0 0 1-.182-.071.745.745 0 0 1-.116-.211.421.421 0 0 1-.024-.226c.01-.082.045-.127.107-.137.504-.118.978-.232 1.42-.341a9.917 9.917 0 0 0 1.296-.413c.035-.013.095-.008.181.012.074.026.143.124.206.297l2.28 6.266c.16.437.328.865.506 1.282.174.406.333.772.478 1.097.033.092.03.172-.011.239a.33.33 0 0 1-.142.149.271.271 0 0 1-.226.023c-.085-.02-.153-.081-.202-.18a4.746 4.746 0 0 0-.396-.657 1.475 1.475 0 0 0-.452-.383 1.19 1.19 0 0 0-.567-.107c-.209-.002-.457.05-.745.154l-6.646 2.419a8.277 8.277 0 0 0-.73.305c-.237.099-.449.215-.635.348-.186.133-.331.29-.435.471a.947.947 0 0 0-.135.597c.012.139.031.282.059.428.027.147.058.285.092.416a.181.181 0 0 1-.03.187.388.388 0 0 1-.17.121.383.383 0 0 1-.21.017.181.181 0 0 1-.142-.124 15.275 15.275 0 0 1-.349-1.065c-.09-.32-.21-.686-.361-1.101l-2.256-6.197ZM3.259 90.047c-.28 0-.553.012-.82.036a3.61 3.61 0 0 0-.743.106 1.58 1.58 0 0 0-.59.284.91.91 0 0 0-.344.497c-.038.13-.07.267-.095.409a5.175 5.175 0 0 0-.057.408.172.172 0 0 1-.095.16.422.422 0 0 1-.21.053.422.422 0 0 1-.21-.053.172.172 0 0 1-.095-.16c0-.402.013-.763.038-1.083.026-.32.038-.692.038-1.118 0-.485-.006-.965-.019-1.438A52.417 52.417 0 0 1 0 86.71c0-.97.165-1.864.495-2.68a6.18 6.18 0 0 1 3.507-3.515C4.815 80.172 5.704 80 6.67 80c1.067 0 1.995.16 2.782.48.788.319 1.449.757 1.982 1.313.521.556.909 1.219 1.163 1.988.254.757.38 1.58.38 2.468 0 .532-.025 1.053-.075 1.562-.051.497-.077.946-.077 1.349 0 .248.007.473.02.674a8.756 8.756 0 0 0 .076 1.172c.025.19.05.402.076.639.012.071-.013.13-.076.178a.62.62 0 0 1-.21.07.39.39 0 0 1-.229-.035.281.281 0 0 1-.133-.213 4.373 4.373 0 0 0-.153-.728 1.42 1.42 0 0 0-.304-.497 1.11 1.11 0 0 0-.496-.284 2.944 2.944 0 0 0-.8-.089H3.259Zm6.022-1.935c.635 0 1.143-.023 1.524-.07.369-.06.648-.166.839-.32.19-.154.317-.373.38-.657.052-.296.077-.686.077-1.171 0-.533-.12-1.018-.362-1.456a3.319 3.319 0 0 0-1.048-1.154c-.47-.32-1.042-.568-1.715-.746-.674-.177-1.449-.266-2.325-.266-.928 0-1.747.089-2.458.266-.725.178-1.328.468-1.81.87-.496.403-.865.941-1.106 1.616-.254.662-.381 1.479-.381 2.45 0 .236.044.402.133.496.089.095.26.142.515.142H9.28ZM9.098 74.847c-.03.169-.02.295.027.378.035.08.114.163.236.247l1.991 1.19c.17.092.304.147.4.164a.712.712 0 0 0 .417-.038.959.959 0 0 0 .293-.285c.084-.122.159-.264.225-.426.066-.163.12-.333.164-.512a.19.19 0 0 1 .14-.162.387.387 0 0 1 .21-.02.386.386 0 0 1 .189.09.19.19 0 0 1 .076.2c-.05.29-.133.617-.247.983a8.47 8.47 0 0 0-.26 1.054 5.58 5.58 0 0 0-.088.917 5.814 5.814 0 0 1-.094.954c-.01.06-.05.11-.119.147a.57.57 0 0 1-.211.037.537.537 0 0 1-.193-.071.228.228 0 0 1-.095-.204l.012-.277a4.155 4.155 0 0 0-.04-.511 1.2 1.2 0 0 0-.199-.464 2.257 2.257 0 0 0-.403-.463 5.405 5.405 0 0 0-.714-.499l-9.573-5.903c-.09-.054-.121-.159-.094-.315a.546.546 0 0 1 .215-.373c.825-.165 1.708-.34 2.648-.522l2.884-.592 2.905-.607c.956-.204 1.86-.399 2.714-.584.375-.083.671-.174.888-.273.218-.11.387-.224.507-.34.122-.127.214-.26.276-.398.061-.139.125-.29.191-.452a.177.177 0 0 1 .152-.122.384.384 0 0 1 .209-.02.385.385 0 0 1 .19.09c.055.035.078.082.068.143a8.608 8.608 0 0 1-.27 1.109c-.11.34-.205.735-.284 1.18-.089.507-.149.988-.18 1.443-.03.455-.081.887-.153 1.297a.23.23 0 0 1-.144.18.42.42 0 0 1-.227.016.297.297 0 0 1-.171-.086c-.054-.047-.08-.114-.077-.2.024-.419.005-.733-.057-.943-.063-.21-.245-.342-.546-.395-.085-.015-.183-.02-.296-.015a2.278 2.278 0 0 0-.453.032 42.187 42.187 0 0 0-1.985.359c-.167.033-.279.1-.334.202-.065.088-.118.247-.159.476l-.561 3.184Zm-.157-3.236c.03-.169.026-.288-.012-.357-.05-.07-.152-.089-.307-.054l-4.51.828c-.065.013-.104.056-.117.128-.013.073.009.126.065.161l3.943 2.393c.146.088.248.112.304.072.057-.04.097-.126.12-.258l.514-2.913ZM15.13 59.241c.38.139.685.23.916.275.22.041.408.025.565-.048.161-.085.31-.226.448-.424.125-.202.272-.48.44-.836a.22.22 0 0 1 .178-.112.316.316 0 0 1 .38.139c.045.055.053.123.024.204-.168.46-.352.895-.553 1.304-.197.397-.37.803-.522 1.217-.159.438-.301.9-.427 1.39-.122.476-.251.905-.39 1.285a.18.18 0 0 1-.142.123.385.385 0 0 1-.21-.017.385.385 0 0 1-.17-.12.22.22 0 0 1-.065-.2c.096-.37.158-.666.188-.89.022-.24-.004-.438-.077-.595a.86.86 0 0 0-.395-.417 4.863 4.863 0 0 0-.873-.396l-7.664-2.79c-.426-.155-.73-.142-.914.04-.19.165-.378.5-.562 1.007-.155.425-.248.79-.28 1.09-.043.297-.011.57.094.816.099.232.27.457.516.677.25.208.589.442 1.016.702a.177.177 0 0 1 .094.171.54.54 0 0 1-.035.203.577.577 0 0 1-.132.147c-.051.033-.1.042-.146.025a12.82 12.82 0 0 0-1.27-.54 9.053 9.053 0 0 0-1.354-.415c-.126-.046-.183-.158-.17-.336a2.07 2.07 0 0 1 .125-.56l3.361-9.235c.08-.219.168-.389.264-.51.09-.137.197-.183.324-.137.13.073.294.16.492.258.192.083.408.168.65.256.242.088.491.172.749.253.261.069.511.134.75.195.046.016.081.062.106.136a.572.572 0 0 1 0 .215.693.693 0 0 1-.11.195c-.043.049-.102.067-.175.053-.486-.099-.893-.143-1.223-.132-.341.006-.628.078-.86.215-.24.12-.439.31-.597.564a4.36 4.36 0 0 0-.461.947c-.189.517-.267.912-.236 1.184.02.268.243.48.668.635l7.665 2.79ZM13.715 39.756a1 1 0 0 1 .17-.22c.07-.073.173-.056.309.05.104.09.23.177.38.262l.445.258c.477.275.932.516 1.364.723.042.025.064.073.065.144a.652.652 0 0 1-.044.187.692.692 0 0 1-.142.172c-.052.041-.113.048-.183.022a9.305 9.305 0 0 0-1.099-.337c-.276-.06-.512-.056-.708.015-.2.054-.385.188-.551.403-.16.204-.353.489-.578.854l-.551.955c-.16.275-.283.501-.37.677a.787.787 0 0 0-.093.455c.008.132.078.257.208.375.13.117.328.253.593.406l2.784 1.607c.148.086.259.114.332.086a.354.354 0 0 0 .14-.132c.281-.487.48-.882.597-1.182.123-.31.171-.566.145-.765a.9.9 0 0 0-.28-.543 4.841 4.841 0 0 0-.627-.532.227.227 0 0 1-.088-.178.386.386 0 0 1 .053-.202.385.385 0 0 1 .15-.148.18.18 0 0 1 .188.003c.17.098.32.192.452.283a71.247 71.247 0 0 0 .775.532c.132.09.293.19.484.3.318.184.62.337.903.458.273.115.595.28.966.494.053.03.08.082.081.153a.54.54 0 0 1-.069.193.98.98 0 0 1-.149.148.227.227 0 0 1-.198.013 5.403 5.403 0 0 0-.821-.305.757.757 0 0 0-.595.038c-.186.077-.377.25-.574.517-.202.252-.444.621-.725 1.11a.294.294 0 0 0-.028.195c0 .071.06.14.176.208l2.084 1.203c.34.196.644.343.912.442.264.082.503.12.717.117a1.48 1.48 0 0 0 .568-.139c.165-.089.323-.216.476-.383.117-.13.239-.279.364-.447.121-.185.24-.378.356-.58.147-.254.274-.499.381-.734.108-.235.174-.423.199-.564.048-.255.073-.481.074-.678a1.407 1.407 0 0 0-.105-.591 1.888 1.888 0 0 0-.362-.549c-.17-.196-.4-.408-.694-.634a.177.177 0 0 1-.063-.185.749.749 0 0 1 .087-.225.42.42 0 0 1 .158-.163c.069-.045.126-.048.173-.006.415.31.806.6 1.174.869.358.262.741.505 1.15.727.032.018.067.067.107.146.028.073-.003.19-.095.349l-3.335 5.774c-.232.403-.451.807-.657 1.212-.199.394-.377.75-.533 1.07-.049.086-.112.134-.19.146a.33.33 0 0 1-.205-.013.275.275 0 0 1-.163-.157c-.04-.08-.037-.17.008-.272.115-.273.198-.515.25-.725.04-.217.04-.415.002-.593a1.19 1.19 0 0 0-.283-.502c-.133-.162-.332-.32-.597-.472l-6.125-3.537a8.317 8.317 0 0 0-.702-.363 3.248 3.248 0 0 0-.676-.263 1.483 1.483 0 0 0-.64-.03c-.199.027-.38.12-.543.28-.1.099-.196.205-.291.32a5.703 5.703 0 0 0-.26.339.18.18 0 0 1-.161.097.386.386 0 0 1-.203-.053.385.385 0 0 1-.147-.15.18.18 0 0 1 .003-.188c.208-.36.405-.678.592-.952.186-.274.39-.602.61-.984l3.298-5.711ZM47.091 18.855a1.83 1.83 0 0 1-.694.231 1.94 1.94 0 0 1-.71-.056 2.15 2.15 0 0 1-.67-.314 1.874 1.874 0 0 1-.726-1.256c-.02-.257.004-.497.072-.72.063-.235.17-.452.323-.654.163-.207.356-.375.58-.503.222-.13.453-.206.693-.232.25-.031.493-.015.727.047.228.053.443.155.644.307.195.142.357.325.486.547.128.223.203.463.224.72.031.25.016.492-.047.726a1.92 1.92 0 0 1-.902 1.157Z"/></g></svg>