<svg width="32" height="32" viewBox="0 0 32 32" fill="none" xmlns="http://www.w3.org/2000/svg">
<g id="Isolation_Mode" clip-path="url(#clip0_24_2220)">
<path id="Vector" d="M15.9789 0.000457976C16.5497 -0.0158071 16.6875 0.403833 16.801 0.834859C17.2809 2.6533 18.017 4.36764 18.9931 5.9665C21.5809 10.2052 25.1901 13.1963 29.9019 14.8066C30.3105 14.9465 30.7207 15.0831 31.1342 15.2035C31.5639 15.3271 32.0049 15.4491 32.0016 16.0053C31.9968 16.5714 31.5152 16.6624 31.1066 16.7861C30.15 17.074 29.1934 17.3521 28.2838 17.7766C22.5002 20.4734 18.651 24.8519 16.8383 31.005C16.7102 31.4409 16.668 31.9744 16.0649 32.0005C15.4114 32.0281 15.3174 31.4653 15.1861 31.0083C14.2197 27.6365 12.5237 24.6746 10.0819 22.1812C8.01946 20.0765 5.61979 18.4321 2.83422 17.409C2.09972 17.139 1.34901 16.9162 0.606412 16.669C0.275646 16.56 -0.00161433 16.3892 7.07562e-06 16.0005C0.00162848 15.6247 0.254567 15.4165 0.582091 15.3027C1.34577 15.0359 2.12729 14.8147 2.878 14.5122C8.83989 12.1115 12.8448 7.84025 14.938 1.75546C15.0791 1.34558 15.199 0.930823 15.3369 0.519315C15.4406 0.213531 15.6255 0.000457976 15.9789 0.000457976Z" fill="#D2C6B3"/>
</g>
<defs>
<clipPath id="clip0_24_2220">
<rect width="32" height="32" fill="white"/>
</clipPath>
</defs>
</svg>
